<?xml version="1.0" encoding="UTF-8"?>
<svg width="256px" height="256px" viewBox="0 0 256 256" version="1.1" xmlns="http://www.w3.org/2000/svg" xmlns:xlink="http://www.w3.org/1999/xlink">
    <!-- Generator: Sketch 47.1 (45422) - http://www.bohemiancoding.com/sketch -->
    <title>0x</title>
    <desc>Created with Sketch.</desc>
    <defs></defs>
    <g id="Classic" stroke="none" stroke-width="1" fill="none" fill-rule="evenodd">
        <g transform="translate(-3388.000000, -4670.000000)" id="0x" fill="#1E2227">
            <g transform="translate(3388.000000, 4670.000000)">
                <path d="M75.1360501,140.45879 L53.5749735,162.729431 C56.190972,171.663994 71.6845662,190.519384 83.867844,197.398047 L84.3025725,197.273589 L45.9073237,226.211931 C17.8468875,202.731877 0,167.450121 0,128 C0,104.762659 6.19211031,82.9715625 17.0163157,64.1867262 L75.1360501,140.45879 Z M58.4840072,84.2858356 L29.821279,45.8676511 C53.3013842,17.830067 88.5684745,0 128,0 C151.514008,0 173.547128,6.34043627 192.482957,17.4049063 L114.667711,73.2959724 L113.889654,73.4943435 L93.427172,53.4196704 C82.8301046,56.5693957 65.3142773,72.3794774 58.7635544,83.7572917 C58.6654082,83.9277597 58.5722258,84.103941 58.4840072,84.2858356 Z M171.530583,58.7983695 L210.101102,29.7951199 C238.156685,53.2751859 256,88.5538282 256,128 C256,151.043911 249.910548,172.665554 239.253026,191.343549 L182.290429,116.431896 L181.987302,115.311809 L202.417617,93.7164876 C198.346451,81.5502539 181.593438,63.0933996 171.902104,58.7036476 L171.530583,58.7983695 Z M197.223983,171.612942 L226.263811,210.030637 C202.783865,238.126804 167.479187,256 128,256 C104.546934,256 82.5670905,249.692387 63.664336,238.681027 L140.47257,181.192682 L140.759993,181.110396 L162.555459,202.523149 C175.664261,197.398047 193.50359,181.110396 197.281381,171.825034 L197.223983,171.612942 Z" id="Logo"></path>
            </g>
        </g>
    </g>
</svg>