<?xml version="1.0" encoding="UTF-8" standalone="no"?>
<svg
   xmlns:dc="http://purl.org/dc/elements/1.1/"
   xmlns:cc="http://creativecommons.org/ns#"
   xmlns:rdf="http://www.w3.org/1999/02/22-rdf-syntax-ns#"
   xmlns:svg="http://www.w3.org/2000/svg"
   xmlns="http://www.w3.org/2000/svg"
   xmlns:sodipodi="http://sodipodi.sourceforge.net/DTD/sodipodi-0.dtd"
   xmlns:inkscape="http://www.inkscape.org/namespaces/inkscape"
   width="25"
   height="25"
   version="1.1"
   id="svg19"
   sodipodi:docname="2GIVE.svg"
   inkscape:version="0.92.2 2405546, 2018-03-11">
  <metadata
     id="metadata23">
    <rdf:RDF>
      <cc:Work
         rdf:about="">
        <dc:format>image/svg+xml</dc:format>
        <dc:type
           rdf:resource="http://purl.org/dc/dcmitype/StillImage" />
      </cc:Work>
    </rdf:RDF>
  </metadata>
  <sodipodi:namedview
     pagecolor="#ffffff"
     bordercolor="#666666"
     borderopacity="1"
     objecttolerance="10"
     gridtolerance="10"
     guidetolerance="10"
     inkscape:pageopacity="0"
     inkscape:pageshadow="2"
     inkscape:window-width="1327"
     inkscape:window-height="894"
     id="namedview21"
     showgrid="false"
     inkscape:zoom="9.44"
     inkscape:cx="12.5"
     inkscape:cy="12.5"
     inkscape:window-x="0"
     inkscape:window-y="0"
     inkscape:window-maximized="0"
     inkscape:current-layer="g13" />
  <defs
     id="defs3">
    <path
       d="M0 .045h6.85v2.462H0V.045zm.86.478a.607.607 0 0 0-.225.038.465.465 0 0 0-.159.1.419.419 0 0 0-.125.284c0 .039.011.07.034.092.022.022.05.033.084.033.038 0 .068-.012.088-.036A.347.347 0 0 0 .61.929.506.506 0 0 1 .644.846a.237.237 0 0 1 .21-.117c.041 0 .08.01.116.029a.214.214 0 0 1 .115.195c0 .04-.01.081-.03.123a.47.47 0 0 1-.083.122.897.897 0 0 1-.139.118 1.606 1.606 0 0 0-.155.131 5.831 5.831 0 0 0-.244.24.347.347 0 0 0-.06.095.252.252 0 0 0-.027.097c0 .038.014.071.043.1a.162.162 0 0 0 .118.041h.747c.045 0 .078-.011.1-.034a.117.117 0 0 0 .033-.085.106.106 0 0 0-.041-.088.193.193 0 0 0-.121-.032h-.53a.584.584 0 0 1 .05-.066c.038-.046.108-.11.21-.194a6.85 6.85 0 0 0 .217-.183.712.712 0 0 0 .128-.162.433.433 0 0 0-.052-.515.398.398 0 0 0-.125-.09A.65.65 0 0 0 .86.524zm5.477.01h-.796a.254.254 0 0 0-.105.018.12.12 0 0 0-.06.06.25.25 0 0 0-.02.106v1.118c0 .065.015.112.044.142.028.029.076.043.141.043h.82c.047 0 .082-.01.106-.033a.111.111 0 0 0 .036-.086.113.113 0 0 0-.036-.087c-.024-.022-.06-.033-.107-.033h-.702v-.424h.625c.047 0 .081-.01.104-.032a.11.11 0 0 0 .033-.082.105.105 0 0 0-.034-.082c-.022-.02-.057-.03-.103-.03h-.625V.764h.679c.048 0 .084-.01.107-.032A.11.11 0 0 0 6.48.648a.108.108 0 0 0-.035-.084C6.421.543 6.385.532 6.337.532zM2.344.506a.938.938 0 0 0-.326.053.651.651 0 0 0-.397.398.933.933 0 0 0-.052.318.91.91 0 0 0 .053.32.657.657 0 0 0 .393.397 1.046 1.046 0 0 0 .844-.087.39.39 0 0 0 .078-.053.144.144 0 0 0 .04-.062.3.3 0 0 0 .012-.09v-.286a.203.203 0 0 0-.027-.115.12.12 0 0 0-.07-.05.437.437 0 0 0-.107-.011h-.342a.14.14 0 0 0-.098.032.106.106 0 0 0-.036.082c0 .041.014.07.043.087a.255.255 0 0 0 .127.025h.234v.242a.996.996 0 0 1-.186.078.683.683 0 0 1-.197.027.417.417 0 0 1-.335-.141c-.08-.094-.12-.228-.12-.403 0-.08.01-.154.03-.22a.473.473 0 0 1 .09-.168.386.386 0 0 1 .14-.105.46.46 0 0 1 .187-.036c.068 0 .123.01.167.03.044.021.078.046.104.076.026.03.057.074.094.132a.142.142 0 0 0 .214.018.129.129 0 0 0 .042-.097.262.262 0 0 0-.036-.121.45.45 0 0 0-.109-.129.586.586 0 0 0-.188-.101.81.81 0 0 0-.266-.04zm1.093 0a.139.139 0 0 0-.107.046c-.028.03-.042.076-.042.137v1.172c0 .06.014.107.042.137.028.031.064.047.107.047A.143.143 0 0 0 3.547 2c.029-.03.043-.077.043-.138V.69c0-.062-.014-.108-.042-.138a.144.144 0 0 0-.11-.045zm1.551 0a.128.128 0 0 0-.083.025.146.146 0 0 0-.044.056c-.008.02-.022.057-.04.11l-.337 1.004-.337-.997a.628.628 0 0 0-.066-.15C4.06.522 4.024.506 3.972.506a.14.14 0 0 0-.104.043.133.133 0 0 0-.042.094.407.407 0 0 0 .023.105L3.868.8l.354.964.039.106a.46.46 0 0 0 .045.089c.017.026.04.047.068.063a.206.206 0 0 0 .103.024c.04 0 .075-.009.103-.025a.2.2 0 0 0 .067-.062.45.45 0 0 0 .045-.089c.013-.033.026-.068.038-.106l.36-.972A3.29 3.29 0 0 1 5.11.741a.437.437 0 0 0 .015-.05.21.21 0 0 0 .006-.05.142.142 0 0 0-.142-.135z"
       id="a" />
  </defs>
  <g
     fill="none"
     fill-rule="evenodd"
     id="g17">
    <g
       fill-rule="nonzero"
       id="g13">
      <path
         style="fill:#f7931b"
         d="M 0.08,13.114 C 1.4604767,12.439243 2.6701433,11.315296 3.1633617,9.8304982 3.8050595,8.5043653 4.2839264,6.8448011 5.7409608,6.1930977 6.9185224,5.7608068 8.2165913,6.4875569 8.8263371,7.4906635 7.9818005,6.9565946 6.8719955,6.2078408 5.8195956,6.761732 4.5643679,7.5716192 4.1587688,9.1082122 3.4680802,10.347704 2.9428763,11.565646 1.8812848,12.459133 0.67978634,12.952571 0.57557068,13.009671 0.08770491,13.310607 0.08,13.114 Z m 0.668,0.17 c 0.5372343,0.361834 1.5053002,0.260906 2.1118874,-0.110945 1.0858655,-0.599324 1.583861,-1.885678 1.6075173,-3.072722 -0.320394,1.200781 -0.8969614,2.531442 -2.1448188,3.016878 C 1.8256534,13.307098 1.2725482,13.334716 0.748,13.284 Z m 2.538,-0.24 C 3.9248246,13.327624 4.7615735,12.907217 5.1520321,12.3397 5.7313883,11.53664 5.8685565,10.477496 5.7254231,9.5221667 5.5415452,10.985449 5.1088768,12.959289 3.286,13.044 Z M 5.227,12.412 C 6.2810643,12.623384 7.0216321,11.397362 6.9238749,10.441068 6.9990736,10.009566 6.4371712,8.2333324 6.6291777,9.5309733 6.7651101,10.56333 6.5866441,11.923556 5.4714753,12.32754 l -0.126989,0.0394 z M 6.751,11.477 C 7.9791965,11.533424 8.1455201,9.8255211 7.6431281,8.9827953 7.457666,8.4857041 7.0855506,8.0099753 7.3905625,8.8467862 7.6902939,9.7293844 7.8138004,11.057527 6.751,11.477 Z M 7.895,10.424 C 9.0131053,10.196346 8.7564079,8.4136122 7.9474911,7.8052892 7.2762829,7.243577 8.5592664,8.8535902 8.3502045,9.2837595 8.3907085,9.7092003 8.2292081,10.150257 7.895,10.424 Z m 16.988,2.738 C 23.753395,12.89496 22.621432,12.122442 21.926954,11.145865 20.978546,9.7327975 20.624051,7.8746432 19.212463,6.8094332 18.153922,6.1806455 16.979932,6.9249515 16.11947,7.486108 c 0.64334,-1.0811336 2.113947,-1.8137697 3.318353,-1.1884639 1.386128,0.8471086 1.826821,2.521692 2.500321,3.8961879 0.495934,1.371034 1.746322,2.279516 2.944856,2.968168 z m -0.691,0.123 c -1.515812,0.271566 -3.011551,-0.827274 -3.410675,-2.276671 -0.116962,-0.439779 -0.441924,-1.3299292 -0.255931,-0.37088 0.125276,1.494959 1.407171,3.068391 3.025206,2.839022 0.197392,-0.0154 0.58854,-0.02133 0.6414,-0.191471 z m -2.558,-0.247 c -1.377322,-0.03787 -2.144451,-1.472477 -2.28699,-2.689447 -0.02863,-0.5108743 -0.190419,-1.1818315 -0.187058,-0.246455 -0.04366,1.276588 0.568437,2.925583 2.033361,3.031688 0.002,-0.02252 0.549122,0.01294 0.440687,-0.09579 z m -1.946,-0.636 c -1.306286,-0.303713 -1.596563,-1.899335 -1.343226,-3.0277717 0.07743,-0.9088357 -0.392218,0.6874137 -0.328658,1.0873657 -0.147977,0.944187 0.762723,2.20104 1.671878,1.940409 z M 18.165,11.466 C 17.005879,10.946114 17.287564,9.4134092 17.684435,8.4716924 17.490977,8.3477808 16.97027,9.6234378 17.03304,10.147861 16.98917,10.7719 17.562887,11.642527 18.165,11.466 Z M 17.042,10.424 C 16.2223,9.6860394 16.663302,8.4305675 17.242835,7.6938327 16.624908,7.8357722 15.718522,9.6566666 16.7401,10.320705 c 0.01983,0.0474 0.341258,0.219619 0.3019,0.103295 z"
         id="path5"
         inkscape:connector-curvature="0" />
      <path
         style="fill:#f7931b"
         d="M 12.471,18.633 C 11.46904,18.203469 10.846714,17.165761 9.989426,16.493167 8.4146576,15.008775 6.6781609,13.339035 6.383947,11.088732 6.1448195,9.3063057 7.3865321,7.3322599 9.2522878,7.1518874 10.487432,7.0153601 11.78872,7.6890086 12.310882,8.8300364 c 0.76727,-0.067262 1.035798,-1.4953683 2.040043,-1.5466628 1.782115,-0.634099 3.815786,0.6964448 4.140078,2.5193383 0.418033,2.0332831 -0.794376,3.9497201 -2.170956,5.3320761 -1.118442,1.185236 -2.341867,2.266673 -3.51121,3.399018 -0.100025,0.06443 -0.218727,0.0999 -0.337837,0.09919 z"
         id="path7"
         inkscape:connector-curvature="0" />
      <path
         style="fill:#ffffff"
         d="m 15.36,7.307 c 2.085921,-0.0128 3.537104,2.3716592 2.922112,4.281457 -0.649175,2.568209 -2.933772,4.162529 -4.687173,5.967494 -0.500586,0.643419 -1.38013,1.326374 -1.912932,0.298417 C 9.8902754,16.056323 7.656604,14.461313 6.7600008,11.988161 6.2024464,10.404914 6.7376893,8.3867415 8.3109921,7.6107898 9.6702982,6.9202775 11.499923,7.4972195 12.159973,8.8899851 12.710202,9.9567012 12.985691,8.0019106 13.667739,7.8684083 14.149083,7.5015391 14.751607,7.2850211 15.36,7.307 Z m 0,-0.355 C 14.107714,6.7369721 12.948642,8.1023432 12.395573,8.5669439 11.49054,6.9666078 9.1478133,6.4079098 7.6860459,7.5860113 6.1472233,8.6998275 5.7959871,10.927215 6.6162733,12.581924 c 1.0642916,2.400205 3.3027833,3.933415 5.0592337,5.787027 0.531055,0.7422 1.449292,0.371768 1.859366,-0.280787 1.828726,-1.837126 4.090945,-3.467928 4.991185,-6.003647 C 19.197049,10.255683 18.405736,7.8994597 16.5138,7.1767312 16.148362,7.0291062 15.754649,6.9481671 15.36,6.952 Z"
         id="path9"
         inkscape:connector-curvature="0" />
      <path
         style="fill:#ffffff"
         d="M 17.7,10.85 C 17.312016,10.764863 17.7127,9.4936061 17.133174,9.0732291 16.51598,7.996671 14.811083,7.616128 13.98832,8.6665954 13.753856,9.1292967 13.251288,9.118825 13.748547,8.6399844 14.643639,7.4205464 16.71598,7.7482953 17.346563,9.073245 17.662698,9.6026589 17.77523,10.24106 17.7,10.85 Z m -3.731,5.337 c 0.865261,-0.681073 1.717837,-1.926618 2.507844,-2.349951 -1.096561,1.36185 -2.455272,2.516258 -3.711505,3.738342 -0.694578,0.411068 -1.29041,-1.029313 -1.952232,-1.374106 C 9.3484566,14.816324 7.6987341,13.337902 7.2381414,11.289697 6.9826752,9.9148232 7.8006508,8.3305887 9.2414307,8.0559199 10.270764,8.1512062 8.5984106,8.2747538 8.3718871,8.6394622 7.1806651,9.5448446 7.1286222,11.349513 7.8916464,12.548509 c 1.0775748,1.992708 2.9720736,3.336434 4.5108526,4.937174 0.369531,0.06266 0.578065,-0.442787 0.873364,-0.633119 C 13.506909,16.630709 13.737954,16.408855 13.969,16.187 Z"
         id="path11"
         inkscape:connector-curvature="0" />
    </g>
    <path
       d="M14.053 11.408a.142.142 0 0 1 .142.135.21.21 0 0 1-.006.048.437.437 0 0 1-.015.05 3.29 3.29 0 0 0-.019.052l-.36.972a3.326 3.326 0 0 1-.038.106.45.45 0 0 1-.045.088.2.2 0 0 1-.068.063.203.203 0 0 1-.103.024.206.206 0 0 1-.103-.024.196.196 0 0 1-.068-.063.46.46 0 0 1-.045-.088 3.037 3.037 0 0 1-.038-.106l-.355-.964a1.796 1.796 0 0 0-.018-.052.407.407 0 0 1-.023-.104c0-.035.014-.066.041-.095a.14.14 0 0 1 .105-.042c.051 0 .088.015.11.047a.628.628 0 0 1 .065.15l.336.998.338-1.005c.018-.052.031-.09.04-.11a.146.146 0 0 1 .044-.056.128.128 0 0 1 .083-.024zm-1.55 0c.044 0 .081.015.11.045.027.03.041.076.041.137v1.172c0 .062-.014.108-.042.139a.143.143 0 0 1-.11.045.139.139 0 0 1-.107-.046c-.028-.03-.042-.077-.042-.138V11.59c0-.06.014-.106.042-.137a.139.139 0 0 1 .107-.045zm-1.094 0c.1 0 .189.013.266.04.077.026.14.06.188.1a.45.45 0 0 1 .108.13.262.262 0 0 1 .037.12.141.141 0 0 1-.205.122.142.142 0 0 1-.05-.043 1.194 1.194 0 0 0-.095-.131.304.304 0 0 0-.104-.076.397.397 0 0 0-.167-.03.46.46 0 0 0-.187.036.386.386 0 0 0-.14.105.473.473 0 0 0-.09.167.74.74 0 0 0-.03.22c0 .175.04.31.12.404.08.094.191.14.335.14.07 0 .135-.008.196-.027a.996.996 0 0 0 .186-.078v-.241h-.233a.255.255 0 0 1-.127-.026c-.03-.017-.043-.045-.043-.086 0-.033.012-.06.036-.082a.14.14 0 0 1 .098-.033h.342c.041 0 .077.004.106.011a.12.12 0 0 1 .07.05.203.203 0 0 1 .028.116v.285a.3.3 0 0 1-.012.09.144.144 0 0 1-.04.062.39.39 0 0 1-.077.053 1.046 1.046 0 0 1-.844.087.657.657 0 0 1-.394-.396.91.91 0 0 1-.053-.32c0-.116.017-.222.051-.318a.651.651 0 0 1 .397-.398.938.938 0 0 1 .327-.053zm3.993.025c.048 0 .083.01.107.032.023.021.035.05.035.084a.11.11 0 0 1-.035.084c-.024.022-.06.032-.107.032h-.68v.366h.626c.046 0 .08.01.103.03.023.021.034.049.034.082a.11.11 0 0 1-.034.083c-.022.021-.056.032-.103.032h-.625v.423h.702c.047 0 .083.011.107.033a.113.113 0 0 1 .036.088.111.111 0 0 1-.036.086c-.024.022-.06.033-.107.033h-.819c-.066 0-.113-.015-.142-.044-.028-.029-.043-.076-.043-.14v-1.12a.25.25 0 0 1 .02-.105.12.12 0 0 1 .06-.06.254.254 0 0 1 .105-.019h.796zm-5.478-.01a.65.65 0 0 1 .265.05.398.398 0 0 1 .209.22.433.433 0 0 1-.032.384.712.712 0 0 1-.128.161 6.85 6.85 0 0 1-.218.183 1.634 1.634 0 0 0-.21.194.584.584 0 0 0-.05.066h.53c.053 0 .094.011.121.033a.106.106 0 0 1 .042.088.117.117 0 0 1-.033.084c-.022.023-.055.035-.1.035h-.747a.162.162 0 0 1-.119-.042.135.135 0 0 1-.042-.1c0-.024.009-.056.027-.096a.347.347 0 0 1 .06-.095c.09-.093.171-.173.244-.24.072-.067.124-.11.155-.132a.897.897 0 0 0 .138-.118.47.47 0 0 0 .085-.122.29.29 0 0 0 .029-.122.22.22 0 0 0-.116-.196.243.243 0 0 0-.116-.028.237.237 0 0 0-.209.117.506.506 0 0 0-.034.083.347.347 0 0 1-.054.104c-.02.025-.049.037-.087.037a.114.114 0 0 1-.085-.034.123.123 0 0 1-.033-.091.419.419 0 0 1 .125-.284.465.465 0 0 1 .158-.1.607.607 0 0 1 .225-.038z"
       fill="#FFF"
       fill-rule="nonzero"
       id="path15" />
  </g>
</svg>
