<?xml version="1.0" encoding="UTF-8"?>
<svg width="218px" height="256px" viewBox="0 0 218 256" version="1.1" xmlns="http://www.w3.org/2000/svg" xmlns:xlink="http://www.w3.org/1999/xlink">
    <!-- Generator: Sketch 47.1 (45422) - http://www.bohemiancoding.com/sketch -->
    <title>Augur</title>
    <desc>Created with Sketch.</desc>
    <defs>
        <path d="M100.011116,5.06475789 C101.753263,1.93886316 105.057011,0 108.645053,0 C112.231747,0 115.535495,1.93886316 117.278989,5.06475789 L216.045137,182.294905 C218.632084,186.936589 217.061053,192.788211 212.492126,195.520674 L113.725979,254.597389 C112.161684,255.532463 110.403368,256 108.645053,256 C106.886737,256 105.127074,255.532463 103.564126,254.597389 L4.79663158,195.520674 C0.229052632,192.788211 -1.34197895,186.936589 1.24362105,182.294905 L100.011116,5.06475789 Z M70.8608,159.218526 C66.9911579,157.240589 63.2980211,155.836632 59.8096842,155.008 C59.4512842,152.621811 59.2599579,150.179032 59.2599579,147.693137 C59.2599579,147.317221 59.2842105,146.950737 59.2922947,146.577516 C59.2882526,146.268968 59.3057684,145.968505 59.3178947,145.664 C59.3394526,145.169516 59.3650526,144.675032 59.4000842,144.184589 C59.4364632,143.687411 59.4755368,143.194274 59.5267368,142.703832 C59.5617684,142.345432 59.6008421,141.985684 59.6453053,141.628632 C59.7153684,141.072168 59.7935158,140.519747 59.8810947,139.970021 C59.9471158,139.561768 60.0185263,139.157558 60.0926316,138.750653 C60.1775158,138.288505 60.2691368,137.827705 60.3688421,137.370947 C60.4375579,137.051621 60.5049263,136.732295 60.5790316,136.415663 C60.7339789,135.760842 60.9010526,135.112758 61.0816,134.467368 C61.1584,134.187116 61.2446316,133.910905 61.3281684,133.632 C61.4790737,133.126737 61.6380632,132.626863 61.8051368,132.129684 C61.8846316,131.895242 61.9587368,131.658105 62.0395789,131.425011 C62.2740211,130.759411 62.5273263,130.100547 62.7900632,129.447074 C62.8816842,129.219368 62.9773474,128.988968 63.0730105,128.761263 C63.3384421,128.129347 63.6119579,127.504168 63.9043368,126.887074 C64.3610947,125.921011 64.6952421,125.272926 65.0374737,124.630232 C65.6707368,123.466105 66.0560842,122.797811 66.4589474,122.140295 C66.9844211,121.2928 67.3980632,120.660884 67.8224842,120.039747 C68.4476632,119.131621 68.9273263,118.4768 69.4204632,117.832758 C70.5832421,116.334484 71.6746105,115.063916 72.8266105,113.852632 C74.1160421,112.506611 75.3502316,111.342484 76.6450526,110.241684 C78.7388632,108.464505 80.9310316,106.890779 83.2485053,105.498947 C84.6093474,104.691874 85.7640421,104.058611 86.9524211,103.476547 L87.8228211,103.054821 C100.0448,97.5602526 103.706947,91.0942316 103.706947,88.6150737 L103.706947,18.7068632 L14.7523368,178.330947 C22.8567579,173.585516 36.1242947,166.397305 47.8976,162.690695 C53.5605895,160.906779 60.9010526,162.542484 69.7168842,167.553347 C75.7288421,170.968926 80.0471579,174.907284 80.2411789,175.066274 L83.7847579,178.281095 C86.0496842,180.112168 88.5248,181.695326 91.1642947,182.999579 C91.5402105,183.184168 91.9161263,183.368758 92.2987789,183.541221 C92.4941474,183.631495 92.6935579,183.713684 92.8916211,183.798568 C93.2769684,183.965642 93.6636632,184.132716 94.0570947,184.289011 C94.2551579,184.367158 94.4572632,184.438568 94.6566737,184.515368 C98.1194105,185.822316 101.807158,186.667116 105.655242,186.952758 C102.905263,189.524884 100.407242,192.512 98.6098526,195.899284 C96.2371368,195.408842 93.9290947,194.7392 91.6924632,193.918653 C90.9891368,193.661305 90.7695158,193.569684 90.5472,193.480758 C88.9721263,192.859621 87.4388211,192.163032 85.9486316,191.390989 C85.1226947,190.955789 84.6039579,190.674189 84.0933053,190.380463 C81.7866105,189.056 79.5971368,187.549642 77.5437474,185.882947 C76.2987789,184.8576 75.4081684,184.086905 74.5539368,183.275789 C67.6985263,177.571032 56.2202947,170.3936 50.8712421,172.079158 C37.0984421,176.414989 20.3708632,186.363958 14.6229895,189.915621 L103.706947,243.2 L103.706947,206.769853 C103.706947,193.143916 123.565811,184.177179 125.818611,183.170695 L126.659368,182.736842 C131.045053,180.492126 134.953768,177.451116 138.195537,173.806484 C138.971621,172.907789 139.459368,172.3136 139.9296,171.703242 C140.065684,171.526737 140.203116,171.346189 140.337853,171.168337 C140.805389,170.539116 141.256758,169.899116 141.689263,169.244295 C142.393937,168.163705 142.864168,167.374147 143.306105,166.568421 C144.331453,164.702316 145.215326,162.748632 145.930779,160.715453 C147.559747,163.998989 149.6576,167.5008 152.2944,170.679242 C151.671916,171.848758 150.994189,172.984589 150.281432,174.098863 C149.598316,175.157895 149.058021,175.947453 148.492126,176.718147 C148.360084,176.896 148.219958,177.068463 148.087916,177.244968 C147.613642,177.871495 147.127242,178.4832 146.626021,179.085474 C146.438737,179.309137 146.254147,179.5328 146.064168,179.752421 C145.4336,180.482695 144.788211,181.199495 144.117221,181.890695 C143.242779,182.771874 142.612211,183.374147 141.968168,183.962947 C141.762021,184.151579 141.553179,184.338863 141.341642,184.523453 C141.155705,184.690526 140.975158,184.861642 140.783832,185.026021 C138.735832,186.747958 136.558484,188.335158 134.251789,189.736421 C132.777768,190.627032 131.710653,191.219874 130.613895,191.764211 C125.022316,194.305347 113.583158,201.027368 113.583158,206.769853 L113.583158,243.2 L202.358568,190.097516 C195.637895,186.822063 178.533053,178.444126 165.626611,171.753095 C154.374737,165.920337 149.493221,148.609347 148.974484,146.655663 L147.736253,141.954695 C147.292968,138.977011 146.504758,136.116547 145.436295,133.392168 C145.234189,132.874779 145.037474,132.354695 144.813811,131.849432 C144.637305,131.453305 144.441937,131.067958 144.254653,130.681263 C144.053895,130.262232 143.858526,129.8432 143.642947,129.434947 C143.430063,129.032084 143.199663,128.637305 142.974653,128.242526 C142.757726,127.865263 142.546189,127.486653 142.319832,127.117474 C142.070568,126.717305 141.811874,126.326568 141.550484,125.937179 C141.321432,125.590905 141.089684,125.245979 140.848505,124.907789 C140.5696,124.515705 140.277221,124.131705 139.984842,123.7504 C139.739621,123.433768 139.495747,123.119832 139.241095,122.809937 C138.928505,122.428632 138.609179,122.052716 138.281768,121.682189 C138.028463,121.3952 137.769768,121.1136 137.507032,120.834695 C137.159411,120.462821 136.809095,120.096337 136.446653,119.739284 C136.187958,119.484632 135.922526,119.236716 135.658442,118.9888 C135.273095,118.627705 134.8864,118.270653 134.486232,117.924379 C134.234274,117.706105 133.974232,117.498611 133.716884,117.287074 C133.285726,116.934063 132.854568,116.581053 132.408589,116.244211 C132.184926,116.078484 131.953179,115.922189 131.728168,115.757811 C131.229642,115.400758 130.733811,115.043705 130.220463,114.709558 C127.944758,113.263832 125.859032,112.176505 123.6736,111.279158 C119.956211,109.752589 115.962611,108.756884 111.779032,108.430821 C114.468379,105.857347 116.934063,102.874274 118.705853,99.4923789 C121.0112,99.9706947 123.251874,100.621474 125.425179,101.408337 C126.228211,101.680505 127.016421,101.998484 127.793853,102.324547 C128.978189,102.831158 129.855326,103.239411 130.721684,103.673263 C131.853474,104.245895 132.706358,104.712084 133.547116,105.202526 C134.615579,105.834442 135.446905,106.361263 136.263411,106.912337 C137.255074,107.588716 138.066189,108.176168 138.858442,108.789221 C139.765221,109.495242 140.554779,110.148716 141.325474,110.827789 C147.651368,116.415326 152.516716,123.560421 155.321937,131.656758 C156.184253,134.148042 156.845811,136.695916 157.297179,139.3152 L158.520589,144.133389 C159.634863,148.276547 163.901979,159.760168 170.182063,163.016758 C181.156379,168.705347 195.208084,175.632168 203.218189,179.553011 L113.583158,18.7068632 L113.583158,88.6150737 C113.583158,102.239663 93.8213053,111.465095 91.5698526,112.471579 L87.3391158,114.535747 C84.2873263,116.489432 81.5238737,118.850021 79.1242105,121.539368 C78.2955789,122.486568 77.7835789,123.103663 77.2958316,123.738274 C76.6814316,124.535916 76.1950316,125.228463 75.7234526,125.933137 C75.0484211,126.977347 74.6698105,127.594442 74.3100632,128.223663 C73.6916211,129.316379 73.3103158,130.057432 72.9519158,130.810611 C72.4412632,131.922189 72.1664,132.562189 71.9090526,133.212968 C71.4010947,134.519916 71.1275789,135.306779 70.8810105,136.107116 C70.5495579,137.238905 70.3690105,137.926063 70.2046316,138.621305 C69.8758737,140.077811 69.7141895,140.913179 69.5861895,141.756632 C69.4366316,142.830484 69.3544421,143.594442 69.2897684,144.363789 C69.2695579,144.594189 69.2506947,144.824589 69.2358737,145.053642 C69.1779368,145.926737 69.1388632,146.805221 69.1388632,147.693137 C69.2129684,152.131368 69.8058105,155.776 70.8608,159.218526 Z" id="path-1"></path>
    </defs>
    <g id="Classic" stroke="none" stroke-width="1" fill="none" fill-rule="evenodd">
        <g transform="translate(-5223.000000, -1805.000000)" id="Augur">
            <g transform="translate(5223.000000, 1805.000000)">
                <mask id="mask-2" fill="white">
                    <use xlink:href="#path-1"></use>
                </mask>
                <use id="Clip-2" fill="#5F2652" xlink:href="#path-1"></use>
            </g>
        </g>
    </g>
</svg>