<?xml version="1.0" encoding="UTF-8"?>
<svg width="159px" height="256px" viewBox="0 0 159 256" version="1.1" xmlns="http://www.w3.org/2000/svg" xmlns:xlink="http://www.w3.org/1999/xlink">
    <!-- Generator: Sketch 47.1 (45422) - http://www.bohemiancoding.com/sketch -->
    <title>Bitdeal</title>
    <desc>Created with Sketch.</desc>
    <defs></defs>
    <g id="Classic" stroke="none" stroke-width="1" fill="none" fill-rule="evenodd">
        <g transform="translate(-300.000000, -6148.000000)" id="Bitdeal">
            <g transform="translate(300.000000, 6148.000000)">
                <path d="M158.718246,179.815517 C158.115876,199.064983 149.899106,217.905893 136.40046,231.632385 C124.778496,243.566829 109.293838,251.736464 92.8359011,254.418815 C73.3700332,257.703685 52.7613199,253.336507 36.3639216,242.328207 C18.9608677,230.88876 6.36592613,212.294521 2.50308184,191.798903 C-10.1642332,139.834741 43.0623279,71.7756141 117.484254,105.371885 C117.352486,122.948421 117.3561,142.479909 117.495398,160.057801 C113.994276,152.803014 108.785588,146.306762 101.903518,141.999971 C88.2955419,133.205227 69.3718064,133.626886 56.2345818,143.155767 C41.7739517,153.106157 35.2287565,172.848663 40.9869561,189.451469 C46.1241128,205.813478 62.4011878,217.82126 79.595069,217.640549 C96.1377889,218.049106 112.102385,207.234618 118.022622,191.810046 C121.78743,183.07569 120.846228,173.415342 120.934626,164.163249 C121.006157,116.461316 120.947878,6.12936377 120.610852,0.148889893 C133.424303,12.7837384 146.130533,25.5727935 158.846249,38.337302 C158.669253,69.1208875 158.626585,116.280292 158.718246,179.815517 Z" id="Fill-1" fill="#D95F49"></path>
                <path d="M1.1853988,39.6720019 L38.4213143,0.847337198 C38.4853662,44.1038215 38.4414435,76.3839623 38.289546,97.6877597 C62.3992301,84.3942203 92.7663275,83.8031453 117.538769,95.7151505 C117.517987,97.7725432 117.517987,99.818792 117.517987,101.887479 C97.7396397,91.2518945 73.4245476,89.8927986 52.322795,97.2924548 C28.056796,105.665389 8.71501615,126.213715 1.1439859,150.668105" id="Path" fill="#A4A4A4"></path>
            </g>
        </g>
    </g>
</svg>