<?xml version="1.0" encoding="UTF-8" standalone="no"?>
<svg
   xmlns:dc="http://purl.org/dc/elements/1.1/"
   xmlns:cc="http://creativecommons.org/ns#"
   xmlns:rdf="http://www.w3.org/1999/02/22-rdf-syntax-ns#"
   xmlns:svg="http://www.w3.org/2000/svg"
   xmlns="http://www.w3.org/2000/svg"
   xmlns:sodipodi="http://sodipodi.sourceforge.net/DTD/sodipodi-0.dtd"
   xmlns:inkscape="http://www.inkscape.org/namespaces/inkscape"
   id="Layer_1"
   viewBox="0 0 180.00001 179.97841"
   width="659.92084"
   height="659.92084"
   version="1.1"
   sodipodi:docname="datum.svg"
   inkscape:version="0.92.2 2405546, 2018-03-11">
  <metadata
     id="metadata15">
    <rdf:RDF>
      <cc:Work
         rdf:about="">
        <dc:format>image/svg+xml</dc:format>
        <dc:type
           rdf:resource="http://purl.org/dc/dcmitype/StillImage" />
        <dc:title></dc:title>
      </cc:Work>
    </rdf:RDF>
  </metadata>
  <defs
     id="defs13" />
  <sodipodi:namedview
     pagecolor="#ffffff"
     bordercolor="#666666"
     borderopacity="1"
     objecttolerance="10"
     gridtolerance="10"
     guidetolerance="10"
     inkscape:pageopacity="0"
     inkscape:pageshadow="2"
     inkscape:window-width="1920"
     inkscape:window-height="1016"
     id="namedview11"
     showgrid="false"
     fit-margin-top="0"
     fit-margin-left="0"
     fit-margin-right="0"
     fit-margin-bottom="0"
     inkscape:zoom="0.1096"
     inkscape:cx="1250"
     inkscape:cy="329.9604"
     inkscape:window-x="0"
     inkscape:window-y="0"
     inkscape:window-maximized="1"
     inkscape:current-layer="Layer_1" />
  <style
     id="style2">.st0{fill:#2d9cdb}.st1{fill:#fff}</style>
  <circle
     class="st0"
     cx="90"
     cy="89.989197"
     r="90"
     id="circle4"
     style="fill:#2d9cdb" />
  <path
     class="st1"
     d="m 112.8,31.4892 c 2.2,0 4,0.7 5.3,2 1.3,1.3 2,3.1 2,5.3 v 65.7 c 0,7.5 -1.8,14.3 -5.3,20.4 -3.5,6 -8.2,10.8 -14.3,14.4 -6,3.5 -12.6,5.2 -20,5.2 -7.4,0 -14.2,-1.7 -20.3,-5.2 -6,-3.6 -10.8,-8.4 -14.3,-14.4 -3.5,-6.1 -5.2,-13 -5.2,-20.4 0,-7.4 1.6,-14.3 4.8,-20.3 3.3,-6.1 7.7,-10.9 13.2,-14.4 5.7,-3.5 12,-5.2 18.9,-5.2 5.6,0 10.8,1.2 15.6,3.5 4.8,2.3 8.9,5.5 12.2,9.6 v -38.8 c 0,-2.2 0.7,-4 2,-5.3 1.5,-1.4 3.3,-2.1 5.4,-2.1 z m -32.3,100.1 c 4.8,0 9.1,-1.2 13,-3.5 3.9,-2.4 7,-5.7 9.2,-9.8 2.2,-4.1 3.3,-8.7 3.3,-13.8 0,-5.1 -1.1,-9.6 -3.3,-13.7 -2.2,-4.1 -5.3,-7.3 -9.2,-9.6 -3.8,-2.4 -8.2,-3.6 -13,-3.6 -4.8,0 -9.2,1.2 -13.1,3.6 -3.8,2.3 -6.9,5.5 -9.2,9.6 -2.2,4 -3.3,8.6 -3.3,13.7 0,5.1 1.1,9.7 3.3,13.8 2.3,4.1 5.4,7.4 9.2,9.8 4,2.4 8.3,3.5 13.1,3.5 z"
     id="path6"
     inkscape:connector-curvature="0"
     style="fill:#ffffff" />
</svg>
