<?xml version="1.0" encoding="UTF-8"?>
<svg width="232px" height="256px" viewBox="0 0 232 256" version="1.1" xmlns="http://www.w3.org/2000/svg" xmlns:xlink="http://www.w3.org/1999/xlink">
    <!-- Generator: Sketch 47.1 (45422) - http://www.bohemiancoding.com/sketch -->
    <title>Edgeless</title>
    <desc>Created with Sketch.</desc>
    <defs></defs>
    <g id="Classic" stroke="none" stroke-width="1" fill="none" fill-rule="evenodd">
        <g transform="translate(-4617.000000, -6148.000000)" id="Edgeless" fill="#25224B">
            <g transform="translate(4617.000000, 6148.000000)">
                <path d="M132.666667,10.9558378 C122.353297,5.00141132 109.646703,5.00141132 99.3333333,10.9558378 L22.9701155,55.0441622 C12.6567463,60.9985887 6.30344885,72.0028226 6.30344885,83.9116756 L6.30344885,172.088324 C6.30344885,183.997177 12.6567463,195.001411 22.9701155,200.955838 L99.3333333,245.044162 C109.646703,250.998589 122.353297,250.998589 132.666667,245.044162 L209.029884,200.955838 C219.343254,195.001411 225.696551,183.997177 225.696551,172.088324 L225.696551,83.9116756 C225.696551,72.0028226 219.343254,60.9985887 209.029884,55.0441622 L132.666667,10.9558378 Z M135.666667,5.7596854 L212.029884,49.8480098 C224.19966,56.874233 231.696551,69.8592291 231.696551,83.9116756 L231.696551,172.088324 C231.696551,186.140771 224.19966,199.125767 212.029884,206.15199 L135.666667,250.240315 C123.496891,257.266538 108.503109,257.266538 96.3333333,250.240315 L19.9701155,206.15199 C7.80033983,199.125767 0.303448854,186.140771 0.303448854,172.088324 L0.303448854,83.9116756 C0.303448854,69.8592291 7.80033983,56.874233 19.9701155,49.8480098 L96.3333333,5.7596854 C108.503109,-1.26653787 123.496891,-1.26653787 135.666667,5.7596854 Z" id="Polygon-3" fill-rule="nonzero"></path>
                <path d="M84.3333333,184.666667 C69.4216451,184.666667 57.3333333,172.578355 57.3333333,157.666667 C57.3333333,142.754978 69.4216451,130.666667 84.3333333,130.666667 C99.2450216,130.666667 104.339945,139.267559 114.355161,149.713282 C125.11417,139.260669 130.094813,130.666667 145.619669,130.666667 C158.442055,130.666667 171.46382,143.377386 171.46382,157.666667 C171.46382,171.511991 160.545579,184.668469 145.619669,184.666667 C130.370144,184.664825 122.345905,174.169527 110.454528,162.16234 C100.42945,152.039627 94.7669221,142.510002 84.3333333,142.510002 C78.1912072,142.510002 68.6541171,147.067064 68.8739865,157.666667 C69.1773368,172.290771 84.1200721,179.106977 97.0276788,167.570452 C98.9156116,165.883061 99.5119016,165.720597 101.17551,167.354475 C101.747386,167.969159 103.827799,170.155858 104.711864,171.01246 C106.779384,173.015753 106.973281,172.81318 105.217373,175.309297 C101.316222,180.854993 93.7447676,184.666667 84.3333333,184.666667 Z M144.666667,174 C153.503223,174 160.666667,166.836556 160.666667,158 C160.666667,149.163444 153.503223,142 144.666667,142 C138.775629,142 131.442296,147.333333 122.666667,158 C131.442296,168.666667 138.775629,174 144.666667,174 Z" id="Combined-Shape"></path>
                <path d="M114.739455,134.617955 L124.364735,125.421677 C120.063585,119.370245 117.913866,113.771745 117.915576,108.626178 C124.514961,113.004222 143.173082,112.382201 143.717487,97.824931 C143.713358,80.5920698 124.393268,72.5457807 116.418078,54.6776735 C107.843398,71.8287976 85.9637281,79.5405463 86.1111845,97.824931 C86.1820251,102.542828 90.9837161,116.011441 111.794108,108.626178 C110.91936,113.625564 108.627615,119.224064 104.918874,125.421677 L114.739455,134.617955 Z" id="Path-46"></path>
            </g>
        </g>
    </g>
</svg>