<?xml version="1.0" encoding="UTF-8"?>
<svg width="274px" height="274px" viewBox="0 0 274 274" version="1.1" xmlns="http://www.w3.org/2000/svg" xmlns:xlink="http://www.w3.org/1999/xlink">
    <!-- Generator: Sketch 47.1 (45422) - http://www.bohemiancoding.com/sketch -->
    <title>FairCoin</title>
    <desc>Created with Sketch.</desc>
    <defs>
        <circle id="path-1" cx="128" cy="128" r="128"></circle>
    </defs>
    <g id="Classic" stroke="none" stroke-width="1" fill="none" fill-rule="evenodd">
        <g transform="translate(-1561.000000, -6822.000000)" id="FairCoin">
            <g transform="translate(1570.000000, 6831.000000)">
                <g id="Oval-29">
                    <use fill="#FFFFFF" fill-rule="evenodd" xlink:href="#path-1"></use>
                    <circle stroke="#283F79" stroke-width="9" cx="128" cy="128" r="132.5"></circle>
                </g>
                <circle id="Oval-29" fill="#E7C355" cx="127.492063" cy="127.492063" r="117.333333"></circle>
                <path d="M127.492063,244.825397 C192.293474,244.825397 244.825397,192.293474 244.825397,127.492063 C244.825397,89.9445624 227.188732,56.5163251 199.747712,35.0396596 C186.468974,24.6470799 164.934441,34.6998505 135.14411,65.1979715 C118.638846,104.527846 110.386215,145.793253 110.386215,188.994193 C110.386215,215.593991 93.7598498,227.208627 60.5071203,223.838102 C79.5004591,237.068056 102.590349,244.825397 127.492063,244.825397 Z" id="Oval-29" fill="#C49827"></path>
                <path d="M112.008204,111.746032 L89.9047619,111.746032 C84.0137246,111.746032 79.2380952,116.521661 79.2380952,122.412698 C79.2380952,128.303736 84.0137246,133.079365 89.9047619,133.079365 L106.86091,133.079365 C100.863951,158.485953 94.803721,184.137236 85.0147053,204.27731 C80.3624794,197.176977 75.0130754,193.655264 68.9664933,193.712171 C59.89662,193.797533 52.8333653,202.029499 52.9182812,211.388421 C53.0031971,220.747343 62.7889742,227.027864 69.4956046,226.912355 C86.7839663,226.614596 126.034477,229.384371 141.621834,142.094847 C142.161532,139.072528 142.708599,136.067937 143.271641,133.079361 L158.984127,133.079365 C164.875164,133.079365 169.650794,128.303736 169.650794,122.412698 C169.650794,116.521661 164.875164,111.746032 158.984127,111.746032 L147.736747,111.746032 C148.539973,108.344573 149.392945,104.959231 150.309246,101.587302 L170.15873,101.587302 C176.049767,101.587302 180.825397,96.8116723 180.825397,90.9206349 L180.825397,90.9206349 C180.825397,85.0295976 176.049767,80.2539683 170.15873,80.2539683 L170.15873,80.2539683 L157.13629,80.2539683 C161.502931,68.5999912 167.000542,57.0400885 174.212832,45.458026 C174.630044,59.4634164 191.514002,67.7883846 202.474255,56.8117078 C217.19783,42.0660686 190.790983,15.0320082 153.684323,34.5226436 C138.456693,42.5211047 128.686291,59.3979722 121.253123,80.2539683 L97.015873,80.2539683 C91.1248357,80.2539683 86.3492063,85.0295976 86.3492063,90.9206349 C86.3492063,96.8116723 91.1248357,101.587302 97.015873,101.587302 L114.664895,101.587302 C113.75435,104.927751 112.872007,108.31905 112.008205,111.746028 Z" id="Combined-Shape" fill="#FFFFFF"></path>
            </g>
        </g>
    </g>
</svg>