<?xml version="1.0" encoding="UTF-8" standalone="no"?>
<!-- Generator: Adobe Illustrator 22.1.0, SVG Export Plug-In . SVG Version: 6.00 Build 0)  -->

<svg
   xmlns:dc="http://purl.org/dc/elements/1.1/"
   xmlns:cc="http://creativecommons.org/ns#"
   xmlns:rdf="http://www.w3.org/1999/02/22-rdf-syntax-ns#"
   xmlns:svg="http://www.w3.org/2000/svg"
   xmlns="http://www.w3.org/2000/svg"
   xmlns:sodipodi="http://sodipodi.sourceforge.net/DTD/sodipodi-0.dtd"
   xmlns:inkscape="http://www.inkscape.org/namespaces/inkscape"
   version="1.1"
   id="Layer_1"
   x="0px"
   y="0px"
   viewBox="0 0 1191.4001 1191.4"
   xml:space="preserve"
   sodipodi:docname="kittycash-2.svg"
   width="1191.4"
   height="1191.4"
   inkscape:version="0.92.2 2405546, 2018-03-11"><metadata
   id="metadata101"><rdf:RDF><cc:Work
       rdf:about=""><dc:format>image/svg+xml</dc:format><dc:type
         rdf:resource="http://purl.org/dc/dcmitype/StillImage" /><dc:title></dc:title></cc:Work></rdf:RDF></metadata><defs
   id="defs99" /><sodipodi:namedview
   pagecolor="#ffffff"
   bordercolor="#666666"
   borderopacity="1"
   objecttolerance="10"
   gridtolerance="10"
   guidetolerance="10"
   inkscape:pageopacity="0"
   inkscape:pageshadow="2"
   inkscape:window-width="945"
   inkscape:window-height="724"
   id="namedview97"
   showgrid="false"
   fit-margin-top="0"
   fit-margin-left="0"
   fit-margin-right="0"
   fit-margin-bottom="0"
   inkscape:zoom="0.11568627"
   inkscape:cx="612.29999"
   inkscape:cy="171.40002"
   inkscape:window-x="0"
   inkscape:window-y="0"
   inkscape:window-maximized="0"
   inkscape:current-layer="Layer_1" />
<style
   type="text/css"
   id="style2">
	.st0{fill:#FF7777;}
	.st1{fill:#FFFFFF;}
	.st2{fill:#FF7777;stroke:#FF7777;stroke-width:4.439;stroke-miterlimit:10;}
	.st3{fill:#333333;}
	.st4{fill:#FD7F79;}
	.st5{fill:none;stroke:#333333;stroke-width:11.007;stroke-linecap:round;stroke-linejoin:round;stroke-miterlimit:10;}
</style>












<circle
   class="st0"
   cx="595.70001"
   cy="595.70001"
   r="595.70001"
   id="circle28"
   style="fill:#ff7777" />
<path
   class="st1"
   d="m 416.50004,334.9 c 0,0 -177.7,-61.9 -249.9,-44.5 -72.200003,17.4 -40.7,54.4 -36.1,67.2 4.8,12.8 89.4,100.6 114.5,112.3 25,11.5 171.5,-135 171.5,-135 z m 348.6,0 c 0,0 111.2,-33.7 145.1,-38.8 33.9,-5.1 124.19996,-13 139.59996,6.4 15.4,19.2 20.5,41.6 -24.9,85 -45.09996,43.4 -90.29996,77.5 -90.29996,77.5 z"
   id="path30"
   inkscape:connector-curvature="0"
   style="fill:#ffffff" />
<path
   class="st1"
   d="m 272.70004,924 c 60.8,36.6 101.3,38.3 101.3,38.3 0,0 95.6,13.7 433.1,1.3 35.9,-1.3 90.1,-20.3 128.2,-65.8 48.9,-58.4 51.3,-151.5 53.5,-199.9 2.2,-48.4 -11.5,-178.1 -34.4,-218.7 -22.9,-40.6 -50.9,-88.7 -139.6,-124.4 0,0 -49.5,-21.6 -80.4,-27.1 0,0 -74,-71.6 -129,-74.9 -53.3,-3.1 -45.6,1.1 -45.1,1.3 -0.7,-0.2 -60.3,-29.7 -94,-4.2 -33.9,25.8 -43.6,36.6 -20.7,77.7 0,0 -94.5,23.8 -135.9,56.4 -41.4,32.6 -77.7,57.3 -101.3,146.7 -23.6,89.4 -12.1,248 -12.1,248 0,0 15.4,108.7 76.4,145.3 z"
   id="path32"
   inkscape:connector-curvature="0"
   style="fill:#ffffff" />
<ellipse
   class="st1"
   cx="590.70001"
   cy="783.5"
   rx="126.4"
   ry="90.699997"
   id="ellipse34"
   style="fill:#ffffff" />
<path
   class="st1"
   d="m 497.90004,835.9 c 0,0 8.8,41.4 13.2,38.3 4.2,-3.1 13.2,-38.1 13.2,-38.1 0,0 -16.4,1.8 -26.4,-0.2 z"
   id="path36"
   inkscape:connector-curvature="0"
   style="fill:#ffffff" />
<path
   class="st3"
   d="m 497.90004,835.9 6.2,19.6 c 1.1,3.3 2,6.4 3.3,9.7 0.7,1.5 1.1,3.1 2,4.6 0.4,0.7 0.7,1.5 1.1,2 0.2,0.2 0.4,0.7 0.7,0.9 0.2,0.2 0.4,0.2 -0.2,0 -0.2,0 -0.7,0.2 -0.7,0.2 l 0.2,-0.2 c 0.2,-0.2 0.4,-0.4 0.7,-0.9 0.4,-0.7 0.7,-1.3 1.1,-2.2 0.7,-1.5 1.3,-3.1 1.8,-4.6 1.1,-3.1 2.2,-6.4 3.3,-9.7 2,-6.4 4,-13 5.9,-19.6 l 1.5,1.8 c -4.4,0.2 -8.8,0.2 -13.2,0.2 -2.2,-0.2 -4.4,-0.2 -6.6,-0.7 -2.7,-0.2 -4.9,-0.7 -7.1,-1.1 z m 0,0 c 2.2,0.2 4.4,0.2 6.6,0.2 2.2,0 4.4,0 6.6,-0.2 4.4,-0.2 8.8,-0.7 13,-1.1 0.9,0 1.5,0.4 1.5,1.3 v 0.4 c -1.5,6.6 -3.1,13.4 -5.3,20 -1.1,3.3 -2,6.6 -3.3,9.9 -0.7,1.5 -1.3,3.3 -2,4.8 -0.4,0.9 -0.9,1.5 -1.3,2.4 -0.2,0.4 -0.4,0.9 -0.9,1.3 l -0.7,0.7 c -0.2,0.2 -1.1,0.7 -1.8,0.7 -1.5,-0.2 -1.8,-0.9 -2.2,-1.3 -0.4,-0.4 -0.7,-0.9 -0.9,-1.3 -0.4,-0.9 -0.9,-1.8 -1.3,-2.4 -0.7,-1.8 -1.3,-3.3 -1.8,-5.1 -1.1,-3.3 -2,-6.6 -2.6,-9.9 -1.4,-7 -2.7,-13.8 -3.6,-20.4 z"
   id="path38"
   inkscape:connector-curvature="0"
   style="fill:#333333" />
<g
   id="g54"
   transform="translate(-526.89996)">
	<path
   class="st4"
   d="m 1261.6,324.4 c 11.2,2.2 22,5.1 33,8.4 10.8,3.3 21.6,7 31.9,11 20.9,8.1 41.4,18.1 60.8,29.7 19.4,11.7 37.7,25.1 54.4,40.5 4.2,3.7 8.4,7.7 12.1,12.1 3.7,4.4 7.5,8.8 10.8,13.4 6.6,9.5 12.3,19.4 17.2,29.7 9.9,20.7 16.7,42.3 22,64.3 5.3,22 9,44.3 11.5,66.7 2.6,22.5 4.2,44.9 4.8,67.4 0.4,11.2 0.4,22.5 0.4,33.7 V 718 c 0,5.7 -0.2,11.5 -0.7,17 -1.3,22.7 -4.2,45.1 -9,67.4 -4.8,22.2 -11.7,44 -21.8,64.7 -10.1,20.5 -24,40.1 -42.5,54.6 -4.6,3.5 -9.7,6.8 -14.5,9.7 -4.8,2.9 -9.7,5.7 -14.8,8.6 -10.1,5.5 -20.9,9.9 -31.7,13.7 -22,7 -44.5,11 -66.7,13.9 -22.5,2.9 -44.9,4.6 -67.4,5.7 -44.9,2.4 -89.6,3.3 -134.5,3.5 -44.9,0 -89.8,-1.1 -134.5,-4.4 -22.5,-1.5 -44.9,-3.7 -67.2,-7 -22.2,-3.3 -44.7,-7.3 -66.5,-13.7 -11,-3.3 -21.8,-7 -32.4,-11.9 -5.3,-2.4 -10.6,-5.1 -15.6,-8.1 -4.8,-2.9 -9.9,-6.2 -14.5,-9.9 -18.7,-14.5 -32.4,-34.1 -42.5,-54.8 -10.1,-20.7 -17,-42.7 -21.8,-64.7 -4.8,-22.2 -7.7,-44.7 -8.8,-67.4 -0.2,-5.7 -0.4,-11.2 -0.4,-17 v -16.7 c 0,-11.2 0.2,-22.5 0.4,-33.7 0.7,-22.5 2.4,-44.9 5.1,-67.4 2.7,-22.5 6.4,-44.7 11.7,-66.7 5.3,-22 12.3,-43.6 22.2,-64.1 4.8,-10.3 10.6,-20.3 17.2,-29.5 3.3,-4.6 6.8,-9.2 10.8,-13.4 3.7,-4.4 7.9,-8.4 12.1,-12.1 16.7,-15.4 35,-28.8 54.4,-40.5 19.4,-11.7 39.9,-21.4 60.8,-29.7 10.6,-4.2 21.1,-7.7 31.9,-11 10.8,-3.3 21.6,-6.2 32.8,-8.1 1.3,-0.2 2.6,0.7 2.9,2 0.3,1.3 -0.7,2.6 -2,2.9 -10.8,2.2 -21.6,5.3 -32.2,8.6 -10.6,3.3 -21.1,7 -31.3,11.2 -20.5,8.4 -40.5,18.3 -59.5,29.9 -18.9,11.7 -36.8,24.9 -52.8,40.1 -16.3,14.8 -28.4,33.3 -37.7,53.1 -9.2,20 -15.9,41.2 -20.9,62.8 -5,21.6 -8.4,43.6 -10.8,65.6 -4.8,44 -5.3,89 -3.5,133.2 1.3,22 4.4,44 9.2,65.4 4.8,21.4 11.7,42.5 21.4,61.9 9.7,19.4 22.7,37.2 39.4,50 4.2,3.3 8.6,5.9 13.4,8.8 4.6,2.6 9.5,5.1 14.3,7.3 9.9,4.4 20.3,7.9 30.8,10.8 21.1,5.9 42.9,9.9 64.7,13.2 22,3.1 44,5.3 66.3,6.8 44.5,3.1 89,4 133.7,4 44.7,0 89.4,-0.4 133.9,-2.6 22.2,-1.1 44.5,-2.9 66.5,-5.3 22,-2.6 43.8,-6.4 64.5,-13 10.3,-3.3 20.3,-7.5 29.9,-12.6 4.8,-2.4 9.5,-5.3 14.3,-8.1 4.8,-2.8 9.2,-5.5 13.4,-8.8 17,-13 29.7,-30.8 39.4,-50.2 9.7,-19.4 16.5,-40.5 21.1,-62.1 4.8,-21.6 7.7,-43.4 9,-65.6 1.8,-44.3 0.9,-89 -4,-133.2 -2.4,-22 -5.9,-44 -11,-65.6 -5.1,-21.6 -11.7,-42.7 -20.9,-62.5 -9.2,-19.8 -21.4,-38.3 -37.7,-52.8 -16.1,-15.2 -33.7,-28.4 -52.6,-40.1 -18.9,-11.7 -38.8,-21.6 -59.2,-29.7 -10.3,-4.2 -20.7,-7.9 -31.3,-11.2 -10.6,-3.3 -21.4,-6.2 -31.9,-8.4 h -0.2 c -2,-0.4 -3.1,-2.2 -2.6,-4.2 -0.1,-1.4 1.7,-2.7 3.5,-2.2 z"
   id="path40"
   inkscape:connector-curvature="0"
   style="fill:#fd7f79" />
	<path
   class="st4"
   d="m 944.2,338.2 c -0.7,0.2 -1.3,0.2 -1.3,0.2 H 942 l -0.7,-0.2 -1.1,-0.2 -2,-0.4 -3.7,-1.1 -7.5,-2.2 -15,-4.4 c -9.9,-2.9 -20,-5.7 -30.2,-8.4 -20,-5.5 -40.3,-10.3 -60.6,-14.3 -20.3,-4 -40.7,-7.5 -61.2,-9.5 -20.5,-2 -41.2,-2.6 -61.2,-0.4 -9.9,1.1 -19.8,3.1 -28.4,6.8 -4.2,1.8 -8.1,4.2 -11,7 -3.1,2.9 -5.1,6.2 -5.9,10.1 -2,7.9 0.2,17.4 4.4,26.2 0.4,1.1 1.1,2.2 1.5,3.1 0.4,0.9 1.1,2 1.8,3.1 1.3,2 2.9,4.2 4.2,6.2 3.1,4.2 6.2,8.1 9.5,12.1 13,16.1 26.9,31.7 41.2,46.7 7.3,7.5 14.5,14.8 22.2,21.8 7.5,7 15.4,13.9 23.8,19.6 1.5,1.1 2,3.3 0.9,5.1 -1.1,1.5 -3.3,2 -4.8,0.9 -9,-5.9 -17.2,-12.6 -25.1,-19.6 -7.9,-6.8 -15.6,-14.1 -23.1,-21.6 -15,-14.8 -29.5,-29.9 -43.2,-46 -3.5,-4 -6.8,-8.1 -10.1,-12.3 -1.5,-2.2 -3.3,-4.2 -4.8,-6.6 -0.9,-1.1 -1.5,-2.4 -2.4,-3.5 -0.9,-1.5 -1.5,-2.6 -2,-4 -2.4,-5.1 -4.6,-10.3 -5.9,-16.1 -1.3,-5.7 -1.8,-12.1 -0.4,-18.3 1.3,-6.4 4.8,-12.3 9.2,-16.7 4.4,-4.4 9.7,-7.7 15,-10.1 10.6,-4.6 21.6,-6.6 32.4,-7.9 21.6,-2 42.9,-0.9 64.1,1.5 21.1,2.4 41.8,6.2 62.3,11 20.5,4.8 40.7,10.3 60.8,16.3 10.1,3.1 20,6.4 29.9,9.7 l 14.8,5.1 7.5,2.6 3.7,1.3 1.8,0.7 0.9,0.2 h 0.4 -0.2 c 0,0 -0.4,0 -1.1,0.2 1.8,-0.7 3.7,0.4 4.4,2.4 0,1.5 -0.9,3.5 -2.9,3.9 z"
   id="path42"
   inkscape:connector-curvature="0"
   style="fill:#fd7f79" />
	<path
   class="st4"
   d="m 672.7,334.1 c 4.4,-0.9 8.8,-1.5 13.2,-2.2 4.4,-0.7 8.8,-1.1 13.2,-1.5 8.8,-0.9 17.8,-1.5 26.9,-2 17.8,-0.9 35.9,-0.7 53.7,0.4 18.1,1.1 35.7,4.8 53.1,9 17.4,4.4 34.6,10.6 50.6,18.3 1.3,0.7 1.8,2.2 1.1,3.3 -0.4,1.1 -1.8,1.8 -3.1,1.3 -16.7,-5.1 -33.7,-9.5 -51.1,-12.1 -4.2,-0.9 -8.6,-1.1 -13,-1.8 l -6.4,-0.9 -6.6,-0.7 c -4.4,-0.4 -8.6,-0.9 -13,-1.3 -4.4,-0.4 -8.6,-0.9 -13,-1.3 -17.4,-1.5 -34.8,-2.4 -52.4,-2.6 -8.8,-0.2 -17.6,0 -26.4,0.2 -8.8,0 -17.6,0.4 -26.2,1.1 -2,0 -3.5,-1.3 -3.7,-3.3 0.3,-2 1.4,-3.5 3.1,-3.9 z"
   id="path44"
   inkscape:connector-curvature="0"
   style="fill:#fd7f79" />
	<path
   class="st4"
   d="m 721,334.1 c 0,0 -7.7,54 74,82.6 0,0 50.9,-45.6 87.9,-58.6 0,0 -49.5,-19.2 -92.5,-21.6 -43.2,-2.4 -69.4,-2.4 -69.4,-2.4 z m 571.8,-2.5 c -0.7,-0.2 -1.3,-0.2 -1.1,-0.2 h -0.2 0.4 l 0.9,-0.2 1.8,-0.7 3.7,-1.3 7.5,-2.6 14.8,-5.1 c 9.9,-3.3 19.8,-6.6 29.9,-9.7 20,-6.2 40.3,-11.7 61,-16.3 20.5,-4.8 41.4,-8.6 62.3,-11 21.1,-2.4 42.5,-3.5 64.1,-1.5 10.8,1.3 21.8,3.3 32.4,7.9 5.3,2.4 10.6,5.7 15,10.1 4.4,4.4 7.9,10.3 9.2,16.7 1.3,6.4 0.9,12.6 -0.4,18.3 -1.3,5.7 -3.5,11 -5.9,16.1 l -0.9,1.8 c -0.2,0.7 -0.9,1.3 -1.1,2 -0.9,1.3 -1.5,2.4 -2.4,3.5 -1.5,2.2 -3.3,4.4 -5.1,6.4 -3.5,4.2 -6.8,8.1 -10.6,12.1 -14.3,15.6 -29.3,30.4 -44.9,44.5 -7.9,7 -15.9,13.9 -24.2,20.5 -8.4,6.6 -17,12.8 -26.2,18.3 -1.8,1.1 -4,0.4 -5.1,-1.3 -1.1,-1.8 -0.4,-4 1.3,-5.1 8.6,-5.5 16.7,-11.7 24.7,-18.3 7.9,-6.6 15.6,-13.7 23.1,-20.7 15,-14.3 29.5,-29.3 42.9,-44.9 3.3,-4 6.6,-7.9 9.7,-11.9 1.5,-2 3.1,-4 4.4,-5.9 0.7,-1.1 1.3,-2 1.8,-2.9 l 0.7,-1.3 0.9,-1.8 c 4.2,-8.8 6.4,-18.5 4.4,-26.2 -1.1,-4 -3.1,-7.3 -5.9,-10.1 -3.1,-2.9 -6.8,-5.3 -11,-7 -8.6,-3.7 -18.3,-5.7 -28.4,-6.8 -20,-2.2 -40.7,-1.5 -61.2,0.4 -20.5,2 -41,5.5 -61.2,9.5 -20.3,4.2 -40.5,9 -60.6,14.3 -10.1,2.6 -20,5.5 -30.2,8.4 l -15,4.4 -7.5,2.2 -3.7,1.1 -2,0.4 -1.1,0.2 -0.7,0.2 h -0.9 c 0,0 -0.7,0 -1.3,-0.2 -1.8,-0.7 -2.9,-2.4 -2.4,-4.4 0.6,-1.4 2.6,-2.3 4.3,-1.9 z"
   id="path46"
   inkscape:connector-curvature="0"
   style="fill:#fd7f79" />
	<path
   class="st4"
   d="m 1561.7,341.1 c -8.6,-0.4 -17.6,-0.9 -26.2,-1.1 -8.8,-0.2 -17.6,-0.2 -26.4,-0.2 -17.6,0.2 -35,1.1 -52.4,2.6 -4.4,0.4 -8.6,0.9 -13,1.3 -4.4,0.4 -8.6,0.9 -13,1.3 l -6.6,0.7 -6.4,0.9 c -4.4,0.7 -8.6,1.1 -13,1.8 -17.2,2.9 -34.1,7 -51.1,12.1 -1.3,0.4 -2.9,-0.4 -3.1,-1.8 -0.4,-1.3 0.2,-2.4 1.3,-3.1 16.3,-7.7 33.3,-13.7 50.6,-18.3 17.4,-4.2 35.2,-7.9 53.1,-9 17.8,-1.1 35.9,-1.3 53.7,-0.4 9,0.4 17.8,1.1 26.9,2 4.4,0.4 8.8,1.1 13.2,1.5 4.4,0.7 8.8,1.3 13.2,2.2 2,0.4 3.1,2.2 2.9,4 -0.4,2.4 -1.9,3.5 -3.7,3.5 z"
   id="path48"
   inkscape:connector-curvature="0"
   style="fill:#fd7f79" />
	<path
   class="st4"
   d="m 1514.1,334.1 c 0,0 7.7,54 -74,82.6 0,0 -50.9,-45.6 -87.9,-58.6 0,0 49.5,-19.2 92.5,-21.6 43,-2.4 69.4,-2.4 69.4,-2.4 z m -362,-10 c -2.9,3.3 -5.9,6.2 -9,9 -3.1,2.6 -6.4,5.3 -9.9,7.7 -6.8,4.8 -14.1,8.8 -21.8,12.1 -15.4,6.6 -32.2,10.1 -48.9,10.6 -8.4,0.2 -16.7,-0.2 -25.1,-1.5 -8.4,-1.1 -16.3,-2.9 -24.4,-5.3 -8.1,-2.4 -16.1,-5.3 -23.6,-9.5 -7.5,-4 -15,-9 -21.1,-15.4 -6.2,-6.4 -11.2,-14.3 -13.9,-23.3 -2.6,-8.8 -2.9,-18.7 0,-27.5 1.3,-4.4 3.7,-8.8 6.4,-12.6 2.6,-3.7 5.7,-6.8 9,-9.7 6.6,-5.7 14.1,-10.1 21.8,-13.7 15.6,-7 32.8,-9.7 49.5,-8.4 16.7,1.3 33,6.8 47.6,14.5 1.8,0.9 2.4,3.1 1.5,4.8 -0.9,1.8 -3.1,2.4 -4.8,1.5 -14.1,-6.8 -29.3,-11.2 -44.7,-11.9 -15.4,-0.7 -30.8,2.2 -44.5,9 -6.8,3.3 -13.2,7.7 -18.5,12.8 -2.6,2.6 -5.1,5.3 -7,8.1 -1.9,2.8 -3.3,5.7 -4.2,9 -1.5,6.6 -1.3,13.4 0.9,20 2.2,6.6 5.7,12.6 10.8,17.8 9.9,10.6 23.8,17.6 38.5,22.2 7.3,2.4 15,4.2 22.7,5.5 7.7,1.3 15.4,2 23.1,2 15.4,0.2 30.8,-2.4 45.4,-7.9 7.3,-2.6 14.3,-6.2 20.9,-10.1 3.3,-2 6.6,-4.2 9.7,-6.6 3.1,-2.4 6.2,-4.8 8.6,-7.5 l 0.2,-0.2 c 1.3,-1.3 3.5,-1.3 4.8,0 1.1,1 1.1,3 0,4.5 z"
   id="path50"
   inkscape:connector-curvature="0"
   style="fill:#fd7f79" />
	<path
   class="st4"
   d="m 1094.2,306.1 c -3.5,-4.4 -6.4,-8.8 -9,-13.4 -2.6,-4.8 -5.1,-9.7 -6.6,-15.4 -0.9,-2.9 -1.3,-5.7 -1.5,-8.8 -0.2,-3.1 0.2,-6.6 1.3,-9.9 1.3,-3.3 3.7,-6.6 6.6,-8.6 2.9,-2.2 5.9,-3.5 9,-4.4 3.1,-0.9 6.2,-1.3 8.8,-1.5 2.9,-0.2 5.7,-0.2 8.4,-0.2 5.5,0 11,0.7 16.5,1.5 10.8,1.8 21.4,4.6 31.5,8.1 10.1,3.7 19.8,8.1 29.3,13.2 9.5,5.1 18.5,10.6 27.3,16.7 17.6,12.1 33.9,26 48,41.8 1.3,1.5 1.1,3.7 -0.4,5.1 -1.5,1.3 -3.5,1.1 -4.8,-0.2 -14.5,-14.5 -30.8,-27.3 -48.4,-37.9 -17.4,-10.8 -36.3,-19.2 -55.5,-25.8 -9.5,-3.3 -19.2,-6.4 -29.1,-8.1 -4.8,-0.9 -9.9,-1.5 -14.8,-1.8 -2.4,-0.2 -4.8,-0.2 -7.3,0 -2.4,0 -4.6,0.2 -6.6,0.7 -2,0.5 -3.7,1.1 -5.3,2 -1.3,0.9 -2.4,2 -3.1,3.5 -1.5,2.9 -1.3,7.5 -0.4,12.1 2,9.2 6.6,18.7 11.7,27.3 v 0.2 c 0.9,1.8 0.4,3.7 -1.3,4.8 -1.2,0.5 -3.2,0.3 -4.3,-1 z"
   id="path52"
   inkscape:connector-curvature="0"
   style="fill:#fd7f79" />
</g>
<g
   id="g66"
   transform="translate(-526.89996)">
	<path
   class="st3"
   d="m 1119.5,747.8 c 0.7,15.2 -0.7,30.4 -4.2,45.6 -1.8,7.5 -4.4,15 -8.6,21.8 -2.2,3.5 -4.6,6.6 -7.9,9.5 -1.5,1.3 -3.3,2.6 -5.1,3.7 -0.9,0.7 -1.8,0.9 -2.6,1.3 l -2.6,1.3 c -3.5,1.5 -7.3,2.9 -11,4 -3.7,1.1 -7.5,2 -11.2,2.6 -7.7,1.3 -15.2,2 -22.9,2 -7.7,0 -15.4,-0.4 -23.1,-2.2 -3.7,-0.9 -7.5,-2 -11.2,-3.5 -3.5,-1.5 -7,-3.7 -9.9,-6.8 -0.7,-0.9 -0.7,-2 0.2,-2.9 0.9,-0.7 2,-0.7 2.6,0 2.4,2.4 5.5,4.2 8.8,5.5 3.3,1.3 6.8,2.2 10.3,2.9 7.3,1.1 14.5,1.5 21.8,1.1 14.8,-0.9 29.3,-4.2 42.5,-9.7 13.4,-4.4 19.8,-18.5 24,-32.4 2,-7 3.5,-14.3 4.4,-21.6 1.1,-7.3 1.8,-14.8 2,-22.2 0,-1.1 0.9,-2 2,-1.8 0.9,0.1 1.5,0.9 1.7,1.8 z"
   id="path56"
   inkscape:connector-curvature="0"
   style="fill:#333333" />
	<path
   class="st3"
   d="m 1119.5,748 c 0.2,7.3 0.9,14.8 2,22.2 1.1,7.3 2.4,14.5 4.4,21.6 4.2,13.9 10.6,28 24,32.4 13.2,5.5 27.7,8.8 42.5,9.7 7.3,0.4 14.8,0.2 21.8,-1.1 3.5,-0.7 7,-1.5 10.3,-2.9 3.3,-1.3 6.4,-3.1 8.8,-5.5 0.9,-0.9 2,-0.7 2.9,0 0.7,0.7 0.7,2 0,2.6 -2.9,3.1 -6.4,5.3 -9.9,6.8 -3.5,1.5 -7.5,2.6 -11.2,3.5 -7.7,1.5 -15.4,2.2 -23.1,2.2 -7.7,0 -15.4,-0.7 -22.9,-2 -3.7,-0.7 -7.5,-1.5 -11.2,-2.6 -3.7,-1.1 -7.5,-2.4 -11,-4 l -2.6,-1.3 -2.6,-1.3 c -1.8,-1.1 -3.5,-2.4 -5.1,-3.7 -3.1,-2.9 -5.7,-6.2 -7.9,-9.5 -4.2,-6.8 -6.8,-14.3 -8.6,-21.8 -3.5,-15 -4.8,-30.2 -4.2,-45.6 0,-1.1 0.9,-2 2,-1.8 0.8,0.2 1.6,1 1.6,2.1 z"
   id="path58"
   inkscape:connector-curvature="0"
   style="fill:#333333" />
	<path
   class="st3"
   d="m 1158.3,698.9 c 0,-9.5 -18.1,-17 -40.3,-17 -22.2,0 -40.3,7.7 -40.3,17 0,9.5 18.1,48.9 40.3,48.9 22.2,0 40.3,-39.4 40.3,-48.9 z m -154.4,51.6 c -9.9,0 -20,1.1 -30.2,2.4 -10.1,1.3 -20,3.3 -29.7,5.9 -19.6,4.8 -38.8,12.1 -57,21.1 -9,4.6 -17.8,9.7 -26.4,15.2 -8.4,5.7 -16.5,11.7 -24.4,18.3 -15.4,13.2 -29.3,28.2 -41.4,44.7 11.7,-16.7 25.3,-32.2 40.5,-45.8 7.7,-6.8 15.9,-13 24.2,-18.9 8.4,-5.7 17.2,-11 26.2,-15.9 18.1,-9.5 37.4,-17.2 57.3,-22.5 9.9,-2.6 20,-5.1 30.2,-6.6 10.1,-1.5 20.3,-2.9 30.8,-3.1 1.3,0 2.6,1.1 2.6,2.4 0,1.4 -1.1,2.8 -2.7,2.8 0.2,0 0.2,0 0,0 z"
   id="path60"
   inkscape:connector-curvature="0"
   style="fill:#333333" />
	<path
   class="st3"
   d="m 1003.9,766.5 c -10.3,0.2 -20.9,2.2 -31,5.3 -10.1,3.1 -20,7 -29.3,12.3 -9.2,5.3 -18.1,11.2 -26,18.7 -4.2,3.5 -7.7,7.5 -11.5,11.2 -2,2 -3.5,4.2 -5.1,6.2 l -5.1,6.4 4.8,-6.6 c 1.5,-2.2 3.1,-4.4 4.8,-6.4 3.5,-4 7,-8.1 11,-11.9 7.7,-7.7 16.3,-14.1 25.5,-19.8 9.2,-5.7 19.2,-10.3 29.5,-13.9 10.3,-3.5 20.9,-5.9 32.2,-6.6 1.3,0 2.6,0.9 2.6,2.4 0,1.5 -0.9,2.6 -2.4,2.6 z m -2.6,15.2 c -10.1,4.8 -19.8,11 -29.3,17.6 -9.2,6.6 -18.1,14.1 -26.2,22.2 -4,4 -7.9,8.4 -11.5,12.8 -3.5,4.4 -7,9 -10.1,13.9 -6.2,9.7 -11,20.3 -14.5,31.3 3.1,-11.2 7.5,-21.8 13.4,-31.9 2.9,-5.1 6.2,-9.9 9.7,-14.5 3.5,-4.6 7.3,-9 11.2,-13.4 7.9,-8.6 16.5,-16.3 25.8,-23.6 9.2,-7 18.7,-13.7 29.3,-19.2 1.3,-0.7 2.9,-0.2 3.5,1.1 0.7,1.3 0.2,2.9 -1.3,3.7 0.2,-0.2 0.2,-0.2 0,0 z m 227.5,-36.3 c 10.6,0.2 20.7,1.5 30.8,3.1 10.1,1.8 20.3,4 30.2,6.6 19.8,5.5 39,13 57.3,22.5 9,4.8 17.8,10.1 26.2,15.9 8.4,5.9 16.5,12.1 24.2,18.9 15.4,13.7 28.8,29.1 40.5,45.8 -12.1,-16.5 -26,-31.5 -41.4,-44.7 -7.7,-6.6 -15.9,-12.6 -24.4,-18.3 -8.6,-5.5 -17.4,-10.6 -26.4,-15.2 -18.3,-9 -37.2,-16.3 -57,-21.1 -9.9,-2.4 -19.8,-4.4 -29.7,-5.9 -9.9,-1.3 -20.3,-2.4 -30.2,-2.4 h -0.2 c -1.3,0 -2.6,-1.1 -2.6,-2.6 0.2,-1.5 1.3,-2.6 2.7,-2.6 z"
   id="path62"
   inkscape:connector-curvature="0"
   style="fill:#333333" />
	<path
   class="st3"
   d="m 1229,761.5 c 11.2,0.7 21.8,3.1 32.2,6.6 10.4,3.5 20.3,7.9 29.5,13.9 9.2,5.7 18.1,12.1 25.5,19.8 4,3.5 7.5,7.9 11,11.9 1.8,2 3.3,4.2 4.8,6.4 l 4.8,6.6 -5.1,-6.4 c -1.8,-2 -3.3,-4.2 -5.1,-6.2 -3.7,-4 -7.3,-7.9 -11.5,-11.2 -7.9,-7.3 -16.7,-13.4 -26,-18.7 -9.2,-5.3 -19.2,-9.2 -29.3,-12.3 -10.1,-3.1 -20.7,-5.1 -31,-5.3 h -0.2 c -1.3,0 -2.4,-1.1 -2.4,-2.6 -0.1,-1.4 1.2,-2.5 2.8,-2.5 -0.2,0 -0.2,0 0,0 z m 4.8,15.6 c 10.3,5.5 20,12.1 29.3,19.2 9.2,7 17.8,15 25.8,23.6 4,4.2 7.7,8.8 11.2,13.4 3.5,4.6 6.6,9.5 9.7,14.5 5.9,9.9 10.3,20.7 13.4,31.9 -3.3,-11 -8.1,-21.6 -14.5,-31.3 -3.1,-4.8 -6.4,-9.5 -10.1,-13.9 -3.5,-4.4 -7.5,-8.8 -11.5,-12.8 -8.1,-8.1 -17,-15.4 -26.2,-22.2 -9.2,-6.6 -19.2,-12.8 -29.3,-17.6 -1.3,-0.7 -1.8,-2.2 -1.1,-3.3 0.7,-1 2,-2.1 3.3,-1.5 z"
   id="path64"
   inkscape:connector-curvature="0"
   style="fill:#333333" />
</g>
<circle
   class="st4"
   cx="410.70001"
   cy="639.59998"
   id="ellipse68"
   r="88.300003"
   style="fill:#fd7f79" />
<circle
   transform="rotate(-78.854129)"
   class="st3"
   cx="-546.22498"
   cy="554.34308"
   id="ellipse70"
   r="73.997116"
   style="fill:#333333;stroke-width:0.99996108" />
<g
   id="g76"
   transform="translate(-526.89996)">
	
		<circle
   transform="matrix(0.1602,-0.9871,0.9871,0.1602,201.7514,1447.8297)"
   class="st1"
   cx="951.70001"
   cy="605.29999"
   id="ellipse72"
   r="26.6"
   style="fill:#ffffff" />
	<circle
   class="st1"
   cx="892.90002"
   cy="605.29999"
   r="14.3"
   id="circle74"
   style="fill:#ffffff" />
</g>
<path
   class="st3"
   d="m 413.80004,549.4 c 11.9,0.4 23.6,3.1 34.4,7.9 10.8,4.8 20.5,11.9 28.6,20.5 8.1,8.6 14.5,18.7 18.7,29.9 4.2,11 6.2,22.9 5.9,34.8 -0.2,11.9 -2.9,23.8 -7.7,34.6 -4.8,10.8 -11.9,20.9 -20.5,29.1 -8.6,8.2 -18.9,14.8 -30.1,19.2 -11.2,4.4 -23.3,6.4 -35.2,6.2 -12.1,-0.4 -24,-3.3 -34.8,-8.4 -10.8,-5.1 -20.7,-12.3 -28.8,-21.1 -8.1,-8.8 -14.3,-19.2 -18.5,-30.4 -4.2,-11.2 -5.9,-23.1 -5.5,-35 0.4,-11.9 3.3,-23.6 8.4,-34.4 5.1,-10.8 12.1,-20.5 20.7,-28.4 8.6,-8.1 18.9,-14.3 29.9,-18.5 11,-4.4 22.6,-6.4 34.5,-6 z m -0.2,3.5 c -11.2,-0.4 -22.7,1.5 -33.3,5.5 -10.6,4 -20.3,10.1 -28.6,17.8 -8.1,7.7 -14.8,17.2 -19.4,27.5 -4.6,10.3 -7,21.6 -7.5,32.8 -0.2,11.2 1.8,22.5 5.7,33 4,10.3 10.1,20 17.8,28.2 7.7,8.1 17,14.5 27.1,19.2 10.1,4.6 21.1,7 32.4,7.3 11,0.4 22.2,-1.3 32.8,-5.1 10.3,-3.7 20.3,-9.7 28.4,-17.2 8.1,-7.5 15,-16.7 19.6,-26.9 4.6,-10.1 7.5,-21.4 7.9,-32.6 0.4,-11.2 -1.3,-22.7 -5.3,-33.3 -4,-10.6 -9.9,-20.5 -17.6,-28.6 -7.7,-8.4 -17,-15 -27.3,-19.8 -10,-4.7 -21.2,-7.3 -32.7,-7.8 z"
   id="path78"
   inkscape:connector-curvature="0"
   style="fill:#333333" />
<circle
   class="st4"
   cx="777.60004"
   cy="639.40002"
   id="ellipse80"
   r="88.300003"
   style="fill:#fd7f79" />
<circle
   transform="rotate(-1.9279246)"
   class="st3"
   cx="727.70184"
   cy="667.83807"
   id="ellipse82"
   r="73.99749"
   style="fill:#333333;stroke-width:0.99996603" />
<g
   id="g88"
   transform="translate(-526.89996)">
	<circle
   class="st1"
   cx="1290.4"
   cy="605.29999"
   r="26.6"
   id="circle84"
   style="fill:#ffffff" />
	<circle
   class="st1"
   cx="1349.2"
   cy="605.29999"
   r="14.3"
   id="circle86"
   style="fill:#ffffff" />
</g>
<path
   class="st3"
   d="m 774.50004,552.9 c -11.2,0.4 -22.5,3.1 -32.8,7.7 -10.3,4.6 -19.6,11.5 -27.3,19.8 -7.7,8.3 -13.7,18.1 -17.6,28.6 -4,10.6 -5.7,22 -5.3,33.3 0.4,11.3 3.1,22.5 7.9,32.6 4.6,10.1 11.5,19.4 19.6,26.9 8.1,7.5 17.8,13.4 28.4,17.2 10.3,3.7 21.6,5.5 32.8,5.1 11,-0.2 22.2,-2.9 32.4,-7.3 10.1,-4.4 19.4,-11 27.1,-19.2 7.7,-8.2 13.9,-17.8 17.8,-28.2 4,-10.3 5.9,-21.8 5.7,-33 -0.2,-11.2 -2.9,-22.5 -7.5,-32.8 -4.6,-10.3 -11.2,-19.8 -19.4,-27.5 -8.1,-7.7 -18.1,-13.9 -28.6,-17.8 -10.3,-3.8 -21.7,-5.6 -33.2,-5.4 z m 0,-3.5 c 11.9,-0.4 23.6,1.5 34.8,5.7 11,4.2 21.4,10.3 29.9,18.5 8.6,8.1 15.9,17.8 20.7,28.4 5.1,10.8 7.7,22.5 8.4,34.4 0.4,11.9 -1.3,23.8 -5.5,35 -4.2,11.2 -10.3,21.6 -18.5,30.4 -8.2,8.8 -17.8,16.1 -28.8,21.1 -10.8,5.1 -22.7,7.9 -34.8,8.4 -12.1,0.2 -24,-1.8 -35.2,-6.2 -11.2,-4.4 -21.6,-10.8 -30.2,-19.2 -8.6,-8.1 -15.6,-18.3 -20.5,-29.1 -4.8,-10.8 -7.5,-22.7 -7.7,-34.6 -0.2,-11.9 1.8,-23.8 5.9,-34.8 4.2,-11 10.8,-21.1 18.7,-29.9 8.1,-8.6 17.8,-15.6 28.6,-20.5 10.7,-4.5 22.3,-7.1 34.2,-7.6 z"
   id="path90"
   inkscape:connector-curvature="0"
   style="fill:#333333" />
<path
   class="st5"
   d="m 674.80004,579.6 c 0,0 97.6,-6.4 160.3,-59.9 m -493.3,-35.9 c 20,-5.9 77.7,-18.1 129.5,22"
   id="path92"
   inkscape:connector-curvature="0"
   style="fill:none;stroke:#333333;stroke-width:11.00699997;stroke-linecap:round;stroke-linejoin:round;stroke-miterlimit:10" />
<ellipse
   class="st1"
   cx="577.00006"
   cy="697.40002"
   rx="14.3"
   ry="4.5999999"
   id="ellipse94"
   style="fill:#ffffff" />
</svg>