<?xml version="1.0" encoding="UTF-8" standalone="no"?>
<!-- Created with sK1/UniConvertor (http://sk1project.org/) -->

<svg
   xmlns:dc="http://purl.org/dc/elements/1.1/"
   xmlns:cc="http://creativecommons.org/ns#"
   xmlns:rdf="http://www.w3.org/1999/02/22-rdf-syntax-ns#"
   xmlns:svg="http://www.w3.org/2000/svg"
   xmlns="http://www.w3.org/2000/svg"
   xmlns:sodipodi="http://sodipodi.sourceforge.net/DTD/sodipodi-0.dtd"
   xmlns:inkscape="http://www.inkscape.org/namespaces/inkscape"
   width="192pt"
   height="192pt"
   viewBox="0 0 192 192"
   version="1.1"
   id="svg18"
   sodipodi:docname="Lisk.svg"
   inkscape:version="0.92.2 2405546, 2018-03-11"
   style="fill-rule:evenodd">
  <metadata
     id="metadata24">
    <rdf:RDF>
      <cc:Work
         rdf:about="">
        <dc:format>image/svg+xml</dc:format>
        <dc:type
           rdf:resource="http://purl.org/dc/dcmitype/StillImage" />
        <dc:title></dc:title>
      </cc:Work>
    </rdf:RDF>
  </metadata>
  <defs
     id="defs22" />
  <sodipodi:namedview
     pagecolor="#ffffff"
     bordercolor="#666666"
     borderopacity="1"
     objecttolerance="10"
     gridtolerance="10"
     guidetolerance="10"
     inkscape:pageopacity="0"
     inkscape:pageshadow="2"
     inkscape:window-width="727"
     inkscape:window-height="480"
     id="namedview20"
     showgrid="false"
     inkscape:zoom="0.33578431"
     inkscape:cx="330.40311"
     inkscape:cy="128"
     inkscape:window-x="0"
     inkscape:window-y="0"
     inkscape:window-maximized="0"
     inkscape:current-layer="g14"
     fit-margin-top="0"
     fit-margin-left="0"
     fit-margin-right="0"
     fit-margin-bottom="0" />
  <g
     id="g16"
     transform="translate(-58.19767,-14)">
    <g
       id="g14">
      <g
         id="g28"
         transform="translate(15.348835)">
        <path
           inkscape:connector-curvature="0"
           id="path2"
           d="m 130,27.6 c -4.4,7.5 -8,14 -8,14.4 0,0.4 9.3,16.6 20.6,36.1 37.6,64.5 40.6,69.9 40.1,71.4 -0.3,0.7 -11.1,13.1 -23.9,27.5 -12.8,14.4 -23.4,26.6 -23.6,27.1 -0.2,0.5 7.7,0.9 19,0.9 h 19.3 l 23,-25.9 c 12.7,-14.3 23,-26.4 23,-26.9 0,-1.4 -79.9,-138.1 -80.7,-138.2 -0.4,0 -4.3,6.1 -8.8,13.6 z"
           style="fill:#041e3b;stroke:none" />
        <path
           inkscape:connector-curvature="0"
           id="path4"
           d="M 86.5,102.5 C 70.7,129.7 58,152.4 58.2,153 c 0.2,0.6 10.7,12.7 23.3,27 l 23,26 h 8 l 8,-0.1 12.5,-14.1 c 6.9,-7.8 12.7,-14.5 12.8,-15 0.2,-0.4 -6.1,-0.8 -14,-0.8 H 117.3 L 105.7,162.9 C 99.3,155.7 94,149.4 94,148.9 c 0,-0.5 8.8,-16 19.5,-34.4 L 133,81 124.9,67 c -4.5,-7.7 -8.5,-14 -8.9,-14 -0.5,0 -13.7,22.3 -29.5,49.5 z"
           style="fill:#041e3b;stroke:none" />
      </g>
    </g>
  </g>
</svg>
