<?xml version="1.0" encoding="UTF-8"?>
<svg width="256px" height="244px" viewBox="0 0 256 244" version="1.1" xmlns="http://www.w3.org/2000/svg" xmlns:xlink="http://www.w3.org/1999/xlink">
    <!-- Generator: Sketch 47.1 (45422) - http://www.bohemiancoding.com/sketch -->
    <title>Metaverse ETP</title>
    <desc>Created with Sketch.</desc>
    <defs></defs>
    <g id="Classic" stroke="none" stroke-width="1" fill="none" fill-rule="evenodd">
        <g transform="translate(-5829.000000, -4676.000000)" id="Metaverse-ETP">
            <g transform="translate(5829.000000, 4676.000000)">
                <circle id="Oval-19" fill="#DE7234" cx="62.7070707" cy="31.6767677" r="13.5757576"></circle>
                <circle id="Oval-19" fill="#E79835" cx="117.656566" cy="10.3434343" r="10.3434343"></circle>
                <polygon id="Path-34" fill="#3F3F3F" points="54.0660582 79.7226383 78.7340642 65.1643623 103.887625 79.7226383 128.177963 65.1643623 152.980138 79.7226383 177.68337 65.1643623 202.948385 79.7226383 202.948385 162.790491 177.68337 177.972904 177.68337 94.4199245 152.980138 80.4219654 152.980138 169.99235 128.177963 185.557213 128.177963 94.4199245 103.887625 80.4219654 103.887625 162.790491 78.7340642 177.474387 78.7340642 94.4199245"></polygon>
                <polygon id="Path-34" fill="#676868" points="54.0660582 79.7226383 78.7340642 65.1643623 103.887625 79.7226383 128.177963 65.1643623 152.980138 79.7226383 177.68337 65.1643623 202.948385 79.7226383 177.68337 94.4199245 152.980138 80.4219654 128.177963 94.4199245 103.887625 80.4219654 78.7340642 94.4199245"></polygon>
                <circle id="Oval-19" fill="#DE7134" cx="27.4747475" cy="81.7777778" r="15.8383838"></circle>
                <circle id="Oval-19" fill="#D64632" cx="17.1313131" cy="138.666667" r="17.1313131"></circle>
                <circle id="Oval-19" fill="#CE492F" cx="40.4040404" cy="191.676768" r="16.4848485"></circle>
                <circle id="Oval-19" fill="#55BBE7" cx="90.5050505" cy="226.262626" r="7.75757576"></circle>
                <circle id="Oval-19" fill="#55BBE7" cx="146.10101" cy="234.020202" r="9.6969697"></circle>
                <circle id="Oval-19" fill="#448CC8" cx="198.141414" cy="213.656566" r="10.020202"></circle>
                <circle id="Oval-19" fill="#388FBA" cx="233.373737" cy="168.080808" r="13.5757576"></circle>
                <circle id="Oval-19" fill="#21628F" cx="241.131313" cy="110.545455" r="14.8686869"></circle>
                <circle id="Oval-19" fill="#F0C23A" cx="221.737374" cy="56.2424242" r="6.46464646"></circle>
                <circle id="Oval-19" fill="#EDC339" cx="178.10101" cy="19.0707071" r="8.72727273"></circle>
            </g>
        </g>
    </g>
</svg>