<?xml version="1.0" encoding="UTF-8"?>
<svg width="234px" height="234px" viewBox="0 0 234 234" version="1.1" xmlns="http://www.w3.org/2000/svg" xmlns:xlink="http://www.w3.org/1999/xlink">
    <!-- Generator: Sketch 47.1 (45422) - http://www.bohemiancoding.com/sketch -->
    <title>MonaCoin</title>
    <desc>Created with Sketch.</desc>
    <defs>
        <linearGradient x1="50%" y1="0%" x2="50%" y2="100%" id="linearGradient-1">
            <stop stop-color="#DFDAC3" offset="0%"></stop>
            <stop stop-color="#A78F63" offset="100%"></stop>
        </linearGradient>
        <path d="M36.0739124,140.513172 L33.7744452,136.747173 L15.8349648,151.648156 L17.4818805,154.345426 L32.8940863,151.152943 L23.137327,163.607746 L24.7531689,166.254124 L46.4215151,157.460165 L44.1220478,153.694167 L31.1723746,159.260577 L31.1413007,159.209686 L40.740863,147.584448 L39.948479,146.286706 L25.1285046,149.362108 L25.0974307,149.311216 L36.0739124,140.513172 Z M25.2090329,86.198995 C31.812358,86.6509479 36.7563037,91.2627461 36.2880642,98.1040288 C35.8198248,104.945312 30.2936334,108.8405 23.6903084,108.388547 C17.0274939,107.932522 12.2127061,103.180144 12.6707664,96.4875847 C13.1288268,89.7950255 18.5462184,85.7429705 25.2090329,86.198995 Z M24.7211194,90.7079756 C21.0922651,90.4596051 17.2667285,92.6482648 16.983749,96.7827792 C16.7007695,100.917294 20.192431,103.606766 23.8212853,103.855136 C27.2716714,104.091292 31.6432424,102.657222 31.9750816,97.8088344 C32.3069209,92.960447 28.1715055,90.9441312 24.7211194,90.7079756 Z M53.1212893,63.7164654 L55.8322236,60.272789 L43.8379222,50.8306233 L43.8748056,50.7837705 L63.5418693,51.2022934 L65.4966927,48.7190982 L47.4818143,34.5374078 L44.77088,37.9810842 L56.6480495,47.3310413 L56.6111661,47.377894 L36.9441024,46.9593712 L34.989279,49.4425664 L53.1212893,63.7164654 Z M102.689829,29.0179678 L95.2651684,31.4452144 L94.9812113,36.5254067 L90.5887591,37.9613732 L91.7496809,13.3037469 L94.9802586,12.2476167 L110.255609,31.5319491 L105.80648,32.9864442 L102.689829,29.0179678 Z M100.416239,25.997196 L95.2140112,19.1033184 L95.1573344,19.121847 L95.3436653,27.6555057 L100.416239,25.997196 Z M157.057553,19.0519597 C155.780341,17.8782351 154.215037,17.0020995 152.506876,16.582075 C146.108511,15.0087626 140.391275,19.4056892 138.867796,25.6013909 C137.387032,31.6233814 140.629688,38.0392674 146.767486,39.5485082 C148.533551,39.9827709 150.261166,39.8242335 152.038615,39.463033 L153.284451,34.3964546 C151.762828,35.4653113 149.703931,35.9722224 147.879962,35.5237216 C143.913555,34.5484103 142.385718,30.2735209 143.289839,26.5966325 C144.215317,22.8328885 147.485897,19.6457883 151.568111,20.6495759 C153.39208,21.0980767 154.973524,22.4080147 155.804598,24.1474901 L157.057553,19.0519597 Z M197.225789,64.8124741 C192.606148,69.5524199 185.890522,70.3345004 180.979768,65.5483864 C176.069013,60.7622725 176.678222,54.0287633 181.297863,49.2888175 C185.959121,44.5061695 192.698266,43.9135394 197.502265,48.5956074 C202.306264,53.2776754 201.887047,60.0298261 197.225789,64.8124741 Z M194.105275,61.5213704 C196.643997,58.9165353 197.452736,54.5839955 194.484933,51.6915179 C191.517129,48.7990404 187.206807,49.7188729 184.668086,52.3237079 C182.25422,54.8004363 180.51687,59.0605777 183.9971,62.4524759 C187.477331,65.844374 191.691409,63.9980988 194.105275,61.5213704 Z M219.253553,100.433713 L218.381233,96.1387006 L196.351034,100.613046 L197.223353,104.908058 L219.253553,100.433713 Z M195.696257,133.283463 L194.820575,137.577791 L209.77769,140.627786 L209.765776,140.686212 L192.005527,149.144469 L191.374083,152.241059 L213.838969,156.822008 L214.714651,152.52768 L199.903601,149.507471 L199.915515,149.449044 L217.675764,140.990787 L218.307208,137.894197 L195.696257,133.283463 Z" id="path-2"></path>
        <filter x="-0.2%" y="-1.0%" width="101.0%" height="101.3%" filterUnits="objectBoundingBox" id="filter-3">
            <feOffset dx="1" dy="-1" in="SourceAlpha" result="shadowOffsetOuter1"></feOffset>
            <feColorMatrix values="0 0 0 0 0   0 0 0 0 0   0 0 0 0 0  0 0 0 0.7 0" type="matrix" in="shadowOffsetOuter1"></feColorMatrix>
        </filter>
        <path d="M87.9399665,235.686401 L89.8812371,232.003873 C91.0890072,229.719245 92.1134785,227.401359 91.506636,224.754839 C90.7521833,221.464571 87.6269933,219.54608 84.3367253,220.300533 C80.6411345,221.147926 79.2745147,224.272053 79.8288115,227.783889 L83.5482449,226.93103 C83.1650956,225.588407 83.4867437,223.707734 85.0603501,223.346909 C86.5385865,223.007952 87.744834,224.437897 88.0400547,225.725393 C88.5047538,227.752007 86.5744173,231.48222 85.6715889,233.34558 L82.4168506,240.165144 L94.5288516,237.387883 L93.8290694,234.33604 L87.9399665,235.686401 Z M105.074502,210.105816 C109.379039,207.679663 113.662606,211.892002 115.608333,215.344155 C117.542048,218.774999 118.872881,224.623499 114.610964,227.02563 C110.349046,229.427761 106.03487,225.260754 104.101154,221.82991 C102.155428,218.377756 100.769965,212.531969 105.074502,210.105816 Z M106.611866,212.833444 C104.395669,214.082552 106.232904,218.438227 107.145714,220.057756 C108.046513,221.655975 110.857402,225.547111 113.0736,224.298003 C115.311106,223.036884 113.41653,218.62929 112.515731,217.031071 C111.602921,215.411542 108.849373,211.572325 106.611866,212.833444 Z M123.901463,197.798046 L134.868489,208.484724 L137.377981,205.9094 L124.168496,193.037586 L119.968938,197.347312 L122.211397,199.532448 L123.901463,197.798046 Z M147.415184,176.726801 L148.331169,174.997513 L150.881871,176.34859 L149.965886,178.077879 L152.840828,179.600704 L151.260754,182.583728 L148.385812,181.060903 L144.584474,188.237452 L143.157811,187.481764 L134.70538,173.703808 L136.239655,170.807249 L147.415184,176.726801 Z M145.83511,179.709825 L139.350277,176.274881 L139.327377,176.318114 L143.991691,183.190019 L145.83511,179.709825 Z" id="path-4"></path>
        <filter x="-0.7%" y="-2.2%" width="102.7%" height="102.9%" filterUnits="objectBoundingBox" id="filter-5">
            <feOffset dx="1" dy="-1" in="SourceAlpha" result="shadowOffsetOuter1"></feOffset>
            <feColorMatrix values="0 0 0 0 0   0 0 0 0 0   0 0 0 0 0  0 0 0 0.7 0" type="matrix" in="shadowOffsetOuter1"></feColorMatrix>
        </filter>
        <linearGradient x1="50%" y1="0%" x2="50%" y2="100%" id="linearGradient-6">
            <stop stop-color="#E9C994" offset="0%"></stop>
            <stop stop-color="#EBDEC6" offset="37.5577966%"></stop>
            <stop stop-color="#ECE0C8" offset="81.7382812%"></stop>
            <stop stop-color="#E8B87D" offset="100%"></stop>
        </linearGradient>
        <path d="M153.624704,61.4100627 L136.394009,88.547133 C122.999199,85.319503 109.027172,85.319503 95.6324243,88.547133 L78.4389252,61.4100627 L69.6373503,100.8433 C60.1716637,108.397264 54.4052718,118.266443 54.4052718,129.097672 C54.4052718,152.827167 81.9769339,172.06898 115.991478,172.06898 C150.006022,172.06898 177.577622,152.827167 177.577622,129.097672 C177.571402,118.266443 171.84855,108.397264 162.395241,100.8433 L153.624704,61.4100627 Z M150.260483,117.218751 L141.678732,109.897395 L149.02165,109.897395 L154.394369,117.218751 L150.260483,117.218751 Z M117.368084,147.085716 L100.329774,117.130543 L104.538176,114.734654 L108.336866,121.407179 L126.951764,121.407179 L130.918083,114.703616 L135.082946,117.174021 L117.368084,147.085716 Z M117.448801,137.439948 L124.07169,126.254863 L111.086532,126.254863 L117.448801,137.439948 Z M83.4653136,118.062244 L79.3624651,118.062244 L86.0065815,109.897395 L92.4626527,109.897395 L83.4653136,118.062244 Z" id="path-7"></path>
        <filter x="-11.4%" y="-15.4%" width="122.7%" height="125.3%" filterUnits="objectBoundingBox" id="filter-8">
            <feOffset dx="0" dy="-5" in="SourceAlpha" result="shadowOffsetOuter1"></feOffset>
            <feGaussianBlur stdDeviation="2.5" in="shadowOffsetOuter1" result="shadowBlurOuter1"></feGaussianBlur>
            <feColorMatrix values="0 0 0 0 0   0 0 0 0 0   0 0 0 0 0  0 0 0 0.3 0" type="matrix" in="shadowBlurOuter1" result="shadowMatrixOuter1"></feColorMatrix>
            <feOffset dx="0" dy="2" in="SourceAlpha" result="shadowOffsetOuter2"></feOffset>
            <feGaussianBlur stdDeviation="2" in="shadowOffsetOuter2" result="shadowBlurOuter2"></feGaussianBlur>
            <feColorMatrix values="0 0 0 0 0   0 0 0 0 0   0 0 0 0 0  0 0 0 0.5 0" type="matrix" in="shadowBlurOuter2" result="shadowMatrixOuter2"></feColorMatrix>
            <feMerge>
                <feMergeNode in="shadowMatrixOuter1"></feMergeNode>
                <feMergeNode in="shadowMatrixOuter2"></feMergeNode>
            </feMerge>
        </filter>
    </defs>
    <g id="Classic" stroke="none" stroke-width="1" fill="none" fill-rule="evenodd">
        <g transform="translate(-906.000000, -3279.000000)" id="MonaCoin">
            <g transform="translate(906.000000, 3279.000000)">
                <path d="M116.61285,233.2257 C52.2093514,233.2257 0,181.016349 0,116.61285 C0,52.2093514 52.2093514,0 116.61285,0 C181.016349,0 233.2257,52.2093514 233.2257,116.61285 C233.2257,181.016349 181.016349,233.2257 116.61285,233.2257 Z" id="Oval-10" fill="url(#linearGradient-1)"></path>
                <path d="M116.191104,191.659802 C157.871315,191.659802 191.659802,157.871315 191.659802,116.191104 C191.659802,74.5108925 157.871315,40.7224053 116.191104,40.7224053 C74.5108925,40.7224053 40.7224053,74.5108925 40.7224053,116.191104 C40.7224053,157.871315 74.5108925,191.659802 116.191104,191.659802 Z M116.191104,194.659802 C72.8540383,194.659802 37.7224053,159.528169 37.7224053,116.191104 C37.7224053,72.8540383 72.8540383,37.7224053 116.191104,37.7224053 C159.528169,37.7224053 194.659802,72.8540383 194.659802,116.191104 C194.659802,159.528169 159.528169,194.659802 116.191104,194.659802 Z" id="Oval-10" fill="#88795B" fill-rule="nonzero"></path>
                <path d="M116.401977,228.821252 C54.3145257,228.821252 3.98270181,178.489428 3.98270181,116.401977 C3.98270181,54.3145257 54.3145257,3.98270181 116.401977,3.98270181 C178.489428,3.98270181 228.821252,54.3145257 228.821252,116.401977 C228.821252,178.489428 178.489428,228.821252 116.401977,228.821252 Z M116.401977,225.821252 C176.832574,225.821252 225.821252,176.832574 225.821252,116.401977 C225.821252,55.97138 176.832574,6.98270181 116.401977,6.98270181 C55.97138,6.98270181 6.98270181,55.97138 6.98270181,116.401977 C6.98270181,176.832574 55.97138,225.821252 116.401977,225.821252 Z" id="Oval-10" fill="#88795B" fill-rule="nonzero"></path>
                <g id="MONACOIN">
                    <use fill="black" fill-opacity="1" filter="url(#filter-3)" xlink:href="#path-2"></use>
                    <use fill="#917C58" fill-rule="evenodd" xlink:href="#path-2"></use>
                </g>
                <g id="2014" transform="translate(116.275439, 205.486196) rotate(-315.000000) translate(-116.275439, -205.486196) ">
                    <use fill="black" fill-opacity="1" filter="url(#filter-5)" xlink:href="#path-4"></use>
                    <use fill="#917C58" fill-rule="evenodd" xlink:href="#path-4"></use>
                </g>
                <g id="Combined-Shape">
                    <use fill="black" fill-opacity="1" filter="url(#filter-8)" xlink:href="#path-7"></use>
                    <use fill="url(#linearGradient-6)" fill-rule="evenodd" xlink:href="#path-7"></use>
                </g>
            </g>
        </g>
    </g>
</svg>