<?xml version="1.0" encoding="UTF-8"?>
<svg width="256px" height="138px" viewBox="0 0 256 138" version="1.1" xmlns="http://www.w3.org/2000/svg" xmlns:xlink="http://www.w3.org/1999/xlink">
    <!-- Generator: Sketch 47.1 (45422) - http://www.bohemiancoding.com/sketch -->
    <title>NAV Coin</title>
    <desc>Created with Sketch.</desc>
    <defs>
        <linearGradient x1="-1.11022302e-14%" y1="50%" x2="100%" y2="50%" id="linearGradient-1">
            <stop stop-color="#C150B3" offset="0%"></stop>
            <stop stop-color="#594FB3" offset="35.0568877%"></stop>
            <stop stop-color="#3470BD" offset="62.4776352%"></stop>
            <stop stop-color="#64C4DD" offset="100%"></stop>
        </linearGradient>
    </defs>
    <g id="Classic" stroke="none" stroke-width="1" fill="none" fill-rule="evenodd">
        <g transform="translate(-2782.000000, -6207.000000)" id="NAV-Coin">
            <g transform="translate(2782.000000, 6207.000000)">
                <polygon id="Path-42" fill="url(#linearGradient-1)" points="0.398733587 137.716839 55.5322723 137.716839 90.2673546 56.818315 134.793131 137.716839 189.058425 137.716839 255.858561 0.128288836 200.486785 0.128288836 160.238701 85.1086216 113.702903 0.128288836 58.2481841 0.128288836"></polygon>
                <polygon id="Path-42" fill="#3E37A8" points="90.2673546 56.818315 113.702903 0.128288836 58.2481841 0.128288836"></polygon>
                <polygon id="Path-42" fill="#0356BA" points="134.793131 137.716839 189.058425 137.716839 160.238701 85.1086216"></polygon>
                <polygon id="Path-42" fill-opacity="0.100000001" fill="#FFFFFF" points="134.793131 137.716839 255.858561 0.128288836 200.486785 0.128288836 160.238701 85.1086216"></polygon>
                <polygon id="Path-42" fill-opacity="0.100000001" fill="#FFFFFF" points="189.058425 137.716839 160.238701 85.1086216 113.702903 0.128288836 58.2481841 0.128288836"></polygon>
                <polygon id="Path-42" fill-opacity="0.0500000045" fill="#FFFFFF" points="0.398733587 137.716839 113.702903 0.128288836 58.2481841 0.128288836"></polygon>
                <polygon id="Path-42" fill-opacity="0.100000001" fill="#FFFFFF" points="189.058425 137.716839 255.858561 0.128288836 200.486785 0.128288836"></polygon>
                <polygon id="Path-42" fill-opacity="0.100000001" fill="#FFFFFF" points="90.2673546 56.818315 134.793131 137.716839 113.702903 0.128288836 58.2481841 0.128288836"></polygon>
                <polygon id="Path-42" fill-opacity="0.049999997" fill="#000000" points="0.398733587 137.716839 55.5322723 137.716839 113.702903 0.128288836"></polygon>
                <polygon id="Path-42" fill-opacity="0.049999997" fill="#000000" points="90.2673546 56.818315 134.793131 137.716839 189.058425 137.716839 58.2481841 0.128288836"></polygon>
            </g>
        </g>
    </g>
</svg>