<?xml version="1.0" encoding="UTF-8"?>
<svg width="256px" height="256px" viewBox="0 0 256 256" version="1.1" xmlns="http://www.w3.org/2000/svg" xmlns:xlink="http://www.w3.org/1999/xlink">
    <!-- Generator: Sketch 47.1 (45422) - http://www.bohemiancoding.com/sketch -->
    <title>Nexus</title>
    <desc>Created with Sketch.</desc>
    <defs>
        <radialGradient cx="32.2742305%" cy="-5.12699917%" fx="32.2742305%" fy="-5.12699917%" r="118.94045%" id="radialGradient-1">
            <stop stop-color="#80C5EA" offset="0%"></stop>
            <stop stop-color="#326F93" offset="70.8886488%"></stop>
            <stop stop-color="#2F6C91" offset="78.4689944%"></stop>
            <stop stop-color="#7FC3EB" offset="100%"></stop>
        </radialGradient>
    </defs>
    <g id="Classic" stroke="none" stroke-width="1" fill="none" fill-rule="evenodd">
        <g transform="translate(-906.000000, -6831.000000)" id="Nexus">
            <g transform="translate(906.000000, 6831.000000)">
                <circle id="Oval-27" fill="url(#radialGradient-1)" cx="128" cy="128" r="128"></circle>
                <path d="M47.1728084,145.362119 C44.4163195,143.025874 42.6666667,139.538159 42.6666667,135.641791 C42.6666667,128.607717 48.3689106,122.905473 55.4029851,122.905473 C59.254287,122.905473 62.7063342,124.614886 65.0417877,127.316373 C74.4144682,118.711737 84.8324131,110.321699 96.1446747,102.400768 C159.958564,57.7178014 228.066645,44.8834559 248.268332,73.7344545 C268.470018,102.585453 233.115343,162.19651 169.301454,206.879476 C105.487565,251.562442 37.3794835,264.396788 17.1777968,235.545789 C3.02977696,215.340323 16.1307125,180.047845 47.1727897,145.36214 Z M50.1589475,147.251867 C28.9216791,170.441273 19.7984273,194.14367 29.1631163,208.027392 C42.6709247,228.053542 89.5291203,220.067723 133.823825,190.190567 C178.118531,160.313411 203.076242,119.858789 189.568433,99.8326397 C176.060625,79.8064902 129.20243,87.7923089 84.9077243,117.669465 C78.6132308,121.915154 72.7092245,126.374443 67.2505975,130.958355 C67.8241387,132.408031 68.1393035,133.988106 68.1393035,135.641791 C68.1393035,142.675865 62.4370595,148.378109 55.4029851,148.378109 C53.5335573,148.378109 51.7581998,147.975347 50.1589529,147.251862 Z" id="Combined-Shape" fill="#FFFFFF"></path>
            </g>
        </g>
    </g>
</svg>