<?xml version="1.0" encoding="UTF-8" standalone="no"?>
<!-- Created with Inkscape (http://www.inkscape.org/) -->
<svg xmlns:dc="http://purl.org/dc/elements/1.1/" xmlns:cc="http://creativecommons.org/ns#" xmlns:rdf="http://www.w3.org/1999/02/22-rdf-syntax-ns#" xmlns:svg="http://www.w3.org/2000/svg" xmlns="http://www.w3.org/2000/svg" version="1.1" width="3687.9021" height="1222.027" id="svg2995">
  <metadata id="metadata3003">
    <rdf:RDF>
      <cc:Work rdf:about="">
        <dc:format>image/svg+xml</dc:format>
        <dc:type rdf:resource="http://purl.org/dc/dcmitype/StillImage"/>
        <dc:title/>
      </cc:Work>
    </rdf:RDF>
  </metadata>
  <defs id="defs3001"/>
  <path d="m 3350.737,748.02 c -75.74,0 -137.193,-61.329 -137.193,-137.036 0,0 0,-137.011 0,-137.011 0,0 -689.32,0 -689.32,0 -75.74,0 -137.133,-61.33 -137.133,-136.963 0,-75.676 61.393,-137.01 137.133,-137.01 0,0 826.513,0 826.513,0 75.768,0 137.165,61.334 137.165,137.01 0,0 0,273.974 0,273.974 0,75.707 -61.397,137.036 -137.165,137.036 z m -679.869,0 c 0,0 127.632,0 127.632,0 0,0 146.671,0 146.671,0 75.707,0 137.106,61.335 137.106,136.968 0,75.702 -61.399,137.039 -137.106,137.039 0,0 -146.671,0 -146.671,0 0,0 -127.632,0 -127.632,0 0,0 -146.644,0 -146.644,0 -22.818,0 -44.283,-5.566 -63.188,-15.402 0,0 -799.833,-532.652 -799.833,-532.652 0,0 -230.528,0 -230.528,0 -75.746,0 -137.143,-61.33 -137.143,-136.963 0,-75.676 61.397,-137.01 137.143,-137.01 0,0 274.293,0 274.293,0 29.543,0 56.964,9.339 79.363,25.239 0,0 781.922,522.781 781.922,522.781 0,0 104.615,0 104.615,0 z m -965.888,0 c 75.711,0 137.122,61.335 137.122,136.968 0,75.702 -61.411,137.039 -137.122,137.039 0,0 -274.326,0 -274.326,0 -22.754,0 -44.283,-5.566 -63.171,-15.402 0,0 -799.844,-532.652 -799.844,-532.652 0,0 -230.485,0 -230.485,0 C 261.398,473.973 200,412.643 200,337.01 200,261.334 261.398,200 337.154,200 c 0,0 274.283,0 274.283,0 29.543,0 56.968,9.339 79.396,25.239 0,0 781.887,522.781 781.887,522.781 0,0 232.26,0 232.26,0 z M 337.154,748.007 c 0,0 274.283,0 274.283,0 75.756,0 137.149,61.334 137.149,137.01 0,75.661 -61.393,136.997 -137.149,136.997 0,0 -274.283,0 -274.283,0 -75.756,0 -137.154,-61.336 -137.154,-136.997 0,-75.676 61.398,-137.01 137.154,-137.01 z" id="path2997" style="fill:#cb9904;fill-rule:evenodd"/>
</svg>