<?xml version="1.0" encoding="UTF-8"?>
<svg width="256px" height="256px" viewBox="0 0 256 256" version="1.1" xmlns="http://www.w3.org/2000/svg" xmlns:xlink="http://www.w3.org/1999/xlink">
    <!-- Generator: Sketch 47.1 (45422) - http://www.bohemiancoding.com/sketch -->
    <title>Open Trading Network</title>
    <desc>Created with Sketch.</desc>
    <defs></defs>
    <g id="Classic" stroke="none" stroke-width="1" fill="none" fill-rule="evenodd">
        <g transform="translate(-300.000000, -6831.000000)" id="Open-Trading-Network" fill="#60D8C5">
            <g transform="translate(300.000000, 6831.000000)">
                <path d="M250.068742,166.626552 L171.467098,88.5725517 C160.105224,77.160283 144.083782,68.8730964 126.700508,68.8730964 C93.3279307,68.8730964 67.5736041,94.627423 67.5736041,128 C67.5736041,146.988194 76.3318357,163.930794 90.0289698,175.00847 L165.231085,250.501089 C153.44984,254.077037 140.949486,256 128,256 C57.307552,256 0,198.692448 0,128 C0,57.307552 57.307552,0 128,0 C198.692448,0 256,57.307552 256,128 C256,141.462012 253.921808,154.438635 250.068742,166.626552 Z M239.492564,190.921887 C235.555708,197.882702 230.985818,204.438191 225.861084,210.510165 L175.002492,159.412436 C179.123064,154.080978 184.024359,141.596633 183.956808,135.794543 L239.492564,190.921887 Z M210.783962,225.629345 C204.790173,230.716766 198.321819,235.262088 191.454652,239.189558 L136.3673,183.677507 C142.133231,183.590755 155.042779,178.071825 159.188173,174.151497 L210.783962,225.629345 Z" id="Logo"></path>
            </g>
        </g>
    </g>
</svg>