<?xml version="1.0" encoding="UTF-8"?>
<svg width="237px" height="256px" viewBox="0 0 237 256" version="1.1" xmlns="http://www.w3.org/2000/svg" xmlns:xlink="http://www.w3.org/1999/xlink">
    <!-- Generator: Sketch 47.1 (45422) - http://www.bohemiancoding.com/sketch -->
    <title>Ripple</title>
    <desc>Created with Sketch.</desc>
    <defs>
        <linearGradient x1="0%" y1="0%" x2="101.999998%" y2="100.999999%" id="linearGradient-1">
            <stop stop-color="#00A9E4" offset="0%"></stop>
            <stop stop-color="#006299" offset="100%"></stop>
        </linearGradient>
    </defs>
    <g id="Classic" stroke="none" stroke-width="1" fill="none" fill-rule="evenodd">
        <g transform="translate(-2176.000000, -410.000000)" id="Ripple" fill="url(#linearGradient-1)">
            <g transform="translate(2176.000000, 410.000000)">
                <path d="M129.095648,53.4754188 C129.095648,63.8348321 132.780636,73.3694318 137.481254,82.2105314 C141.437076,89.6482167 143.435505,103.448457 129.877374,111.278032 C119.788795,117.103022 107.199102,113.415981 100.908359,103.352024 C95.598365,94.849467 89.1865673,86.8844754 80.2079987,81.7016911 C54.6346718,66.9371163 21.9355294,75.6981967 7.17300633,101.269472 C2.35338623,109.616094 0.0410355053,118.71982 0,127.712751 C0.0841227859,146.591136 9.66386151,164.447736 26.740787,174.306516 C43.284251,183.859582 63.6645347,183.859582 80.2079987,174.306516 C89.1824637,169.125783 95.5963132,161.166947 100.906308,152.670546 C105.264278,145.692458 116.150998,136.800064 129.875323,144.732227 C139.947487,150.551062 143.062082,163.300793 137.47715,173.803831 C132.778585,182.644931 129.0977,192.173375 129.0977,202.532788 C129.0977,232.061938 153.035762,256 182.564911,256 C212.092009,256 236.02802,232.061938 236.02802,202.532788 C236.02802,183.430761 225.838904,165.783442 209.29544,156.230376 C200.245059,151.004504 190.051839,149.490294 179.957105,149.137389 C171.485325,148.839881 158.848441,143.412936 158.848441,128.004104 C158.848441,116.522369 168.155294,107.283225 179.961209,106.87287 C190.057995,106.519965 200.247111,105.001651 209.29544,99.7778312 C234.868767,85.0153082 243.631899,52.314114 228.867324,26.740787 C218.965456,9.5899976 200.989853,2.84217094e-14 182.513617,2.84217094e-14 C173.440667,2.84217094e-14 164.250765,2.31029895 155.83028,7.17095456 C139.286816,16.7240202 129.095648,34.3754428 129.095648,53.4754188 Z"></path>
            </g>
        </g>
    </g>
</svg>