<?xml version="1.0" encoding="UTF-8"?>
<svg width="221px" height="256px" viewBox="0 0 221 256" version="1.1" xmlns="http://www.w3.org/2000/svg" xmlns:xlink="http://www.w3.org/1999/xlink">
    <!-- Generator: Sketch 47.1 (45422) - http://www.bohemiancoding.com/sketch -->
    <title>TRON</title>
    <desc>Created with Sketch.</desc>
    <defs></defs>
    <g id="Classic" stroke="none" stroke-width="1" fill="none" fill-rule="evenodd">
        <g transform="translate(-300.000000, -3279.000000)" id="TRON" fill="#0C0E0F">
            <g transform="translate(300.000000, 3279.000000)">
                <path d="M106.146934,121.322624 L15.120169,11.556783 L173.135757,49.8834493 L106.146934,121.322624 Z M116.544421,118.474338 L178.678122,51.7393223 L206.77505,71.3629612 L116.544421,118.474338 Z M180.593683,42.5838306 C69.4818563,15.3085948 11.5228706,1.19429034 6.71672617,0.240917317 C-0.492490404,-1.18914222 -0.335095126,4.1297257 0.253537464,6.14093601 C0.842170054,8.15214633 88.042383,250.230397 89.2154923,253.499557 C90.3886016,256.768716 95.0437423,256.897623 97.4383733,253.499557 C99.034794,251.234179 139.6818,192.165413 219.379392,76.2932597 C220.380996,74.8548818 220.961423,70.3496261 217.839095,68.3039762 C214.716766,66.2583262 182.263828,43.1205589 180.593683,42.5838306 Z M96.6433834,239.252281 L108.022661,128.910675 L207.870901,77.1575709 L96.6433834,239.252281 Z M7.71340495,11.199344 L102.901137,125.886248 L90.7514254,241.743707 L7.71340495,11.199344 Z" id="Logo"></path>
            </g>
        </g>
    </g>
</svg>