<?xml version="1.0" encoding="UTF-8"?>
<svg width="256px" height="242px" viewBox="0 0 256 242" version="1.1" xmlns="http://www.w3.org/2000/svg" xmlns:xlink="http://www.w3.org/1999/xlink">
    <!-- Generator: Sketch 47.1 (45422) - http://www.bohemiancoding.com/sketch -->
    <title>VeChain</title>
    <desc>Created with Sketch.</desc>
    <defs>
        <linearGradient x1="0%" y1="0%" x2="101.999998%" y2="100.999999%" id="linearGradient-1">
            <stop stop-color="#A872ED" offset="0%"></stop>
            <stop stop-color="#FFFFFF" stop-opacity="0" offset="100%"></stop>
        </linearGradient>
    </defs>
    <g id="Classic" stroke="none" stroke-width="1" fill="none" fill-rule="evenodd">
        <g transform="translate(-300.000000, -5452.000000)" id="VeChain">
            <g transform="translate(300.000000, 5452.000000)">
                <path d="M125.225615,160.121579 C130.447769,170.515346 136.822576,175.730416 144.350035,175.766791 C152.830374,175.476969 159.5441,170.261899 164.491213,160.121579 C209.98587,67.402633 234.229394,18.3983344 237.221785,13.1086837 C238.85876,10.2150026 241.803734,0.851368627 245.48818,0.851368627 C247.497142,0.851368627 249.747914,0.851368627 254.021617,0.851368627 C258.295321,0.851368627 252.28196,11.1255759 251.400457,13.1086837 C249.07133,18.3484984 151.9953,213.499242 148.172668,221.612439 C144.350035,229.725636 139.604777,241.124052 126.896431,241.140661 C114.188084,241.157269 109.091685,229.354938 105.033887,221.612439 C96.1806581,204.719998 6.61864741,22.3033072 2.46691376,13.1086837 C-1.6848199,3.91406024 -0.864945808,0.851368627 7.71882798,0.851368627 C16.3026018,0.851368627 30.3002595,0.851368627 39.0137332,0.851368627 C47.7272068,0.851368627 48.9312455,6.06491924 51.8666849,13.1086837 C53.8236445,17.8045267 78.2766213,66.8088253 125.225615,160.121579 Z" id="V" fill="#48B5F6"></path>
                <path d="M105.033887,221.612439 C96.1806581,204.719998 6.61864741,22.3033072 2.46691376,13.1086837 C-1.6848199,3.91406024 -0.864945808,0.851368627 7.71882798,0.851368627 C16.3026018,0.851368627 30.3002595,0.851368627 39.0137332,0.851368627 C47.7272068,0.851368627 48.9312455,6.06491924 51.8666849,13.1086837 C54.8021243,20.1524482 109.091685,229.354938 105.033887,221.612439 Z" id="V" fill="url(#linearGradient-1)"></path>
                <path d="M125.225615,160.121579 C46.1543033,68.2427313 5.23473619,19.2384327 2.46691376,13.1086837 C-1.6848199,3.91406024 -0.864945808,0.851368627 7.71882798,0.851368627 C16.3026018,0.851368627 30.3002595,0.851368627 39.0137332,0.851368627 C47.7272068,0.851368627 48.9312455,6.06491924 51.8666849,13.1086837 C53.8236445,17.8045267 78.2766213,66.8088253 125.225615,160.121579 Z" id="V" fill-opacity="0.15" fill="#FFFFFF"></path>
            </g>
        </g>
    </g>
</svg>