<?xml version="1.0" encoding="UTF-8"?>
<svg width="222px" height="256px" viewBox="0 0 222 256" version="1.1" xmlns="http://www.w3.org/2000/svg" xmlns:xlink="http://www.w3.org/1999/xlink">
    <!-- Generator: Sketch 47.1 (45422) - http://www.bohemiancoding.com/sketch -->
    <title>Walton</title>
    <desc>Created with Sketch.</desc>
    <defs></defs>
    <g id="Classic" stroke="none" stroke-width="1" fill="none" fill-rule="evenodd">
        <g transform="translate(-5240.000000, -3279.000000)" id="Walton">
            <g transform="translate(5223.000000, 3279.000000)">
                <polygon id="Polygon" fill="#023B8B" points="128 0 238.851252 64 238.851252 192 128 256 17.1487483 192 17.1487483 64"></polygon>
                <polygon id="Path-23" fill="#FFFFFF" points="59.2154735 107.916334 82.2712768 107.916334 99.0146652 153.237407 118.52238 107.916334 137.344515 107.916334 155.497998 153.237407 171.867279 107.916334 194.946782 96.5357047 205.870357 114.509752 189.832862 124.886556 171.867279 174.310953 141.564641 181.632271 128.088338 146.633832 108.688961 192.875784 93.5452599 197.754405"></polygon>
                <path d="M134.607013,182.628146 C179.541505,173.466866 220.302277,157.306208 220.302277,142.142525 C220.302277,126.978843 153.781827,132.981245 123.915429,138.620949 C94.0490317,144.260652 35.4230943,163.866953 35.4230943,178.180168 C35.4230943,192.493384 89.6725217,191.789426 134.607013,182.628146 Z" id="Oval-14" stroke="#FFFFFF" stroke-width="5"></path>
                <path d="M63.8371501,78.8193384 C60.2395701,78.8193384 57.3231552,75.9029236 57.3231552,72.3053435 C57.3231552,68.7077635 60.2395701,65.7913486 63.8371501,65.7913486 C67.4347302,65.7913486 70.351145,68.7077635 70.351145,72.3053435 C70.351145,75.9029236 67.4347302,78.8193384 63.8371501,78.8193384 Z M63.8371501,74.259542 C64.9164241,74.259542 65.7913486,73.3846175 65.7913486,72.3053435 C65.7913486,71.2260695 64.9164241,70.351145 63.8371501,70.351145 C62.7578761,70.351145 61.8829517,71.2260695 61.8829517,72.3053435 C61.8829517,73.3846175 62.7578761,74.259542 63.8371501,74.259542 Z" id="Combined-Shape" fill="#FFFFFF"></path>
                <circle id="Oval-13" fill="#FFFFFF" cx="97.7099237" cy="97.0585242" r="5.21119593"></circle>
                <circle id="Oval-13" fill="#FFFFFF" cx="130.605598" cy="69.3740458" r="5.53689567"></circle>
                <circle id="Oval-13" fill="#FFFFFF" cx="155.358779" cy="86.3104326" r="7.49109415"></circle>
                <path d="M197.699746,86.6361323 C189.964948,86.6361323 183.694656,80.3658404 183.694656,72.6310433 C183.694656,64.8962462 189.964948,58.6259542 197.699746,58.6259542 C205.434543,58.6259542 211.704835,64.8962462 211.704835,72.6310433 C211.704835,80.3658404 205.434543,86.6361323 197.699746,86.6361323 Z M197.699746,77.5165394 C200.397931,77.5165394 202.585242,75.3292283 202.585242,72.6310433 C202.585242,69.9328582 200.397931,67.7455471 197.699746,67.7455471 C195.001561,67.7455471 192.814249,69.9328582 192.814249,72.6310433 C192.814249,75.3292283 195.001561,77.5165394 197.699746,77.5165394 Z" id="Combined-Shape" fill="#FFFFFF"></path>
                <path d="M68.0712468,75.2366412 L94.778626,95.4300254" id="Line-2" stroke="#FFFFFF" stroke-width="5" stroke-linecap="square"></path>
                <path d="M98.0356234,96.7328244 L130.605598,69.3740458" id="Line-3" stroke="#FFFFFF" stroke-width="5" stroke-linecap="square"></path>
                <path d="M130.605598,69.3740458 L155.358779,86.3104326" id="Line-4" stroke="#FFFFFF" stroke-width="5" stroke-linecap="square"></path>
                <path d="M155.358779,86.9618321 L191.185751,74.5852417" id="Line-5" stroke="#FFFFFF" stroke-width="5" stroke-linecap="square"></path>
            </g>
        </g>
    </g>
</svg>