<?xml version="1.0" encoding="UTF-8"?>
<svg width="239px" height="256px" viewBox="0 0 239 256" version="1.1" xmlns="http://www.w3.org/2000/svg" xmlns:xlink="http://www.w3.org/1999/xlink">
    <!-- Generator: Sketch 47.1 (45422) - http://www.bohemiancoding.com/sketch -->
    <title>Zeusshield</title>
    <desc>Created with Sketch.</desc>
    <defs></defs>
    <g id="Classic" stroke="none" stroke-width="1" fill="none" fill-rule="evenodd">
        <g transform="translate(-2176.000000, -6148.000000)" id="Zeusshield" fill="#009CBF">
            <g transform="translate(2176.000000, 6148.000000)">
                <path d="M121.6,144.722403 L121.6,203.49913 C122.910331,203.80551 124.110043,204.399451 125.128958,205.210776 L152.322804,178.502534 C151.202608,177.167932 150.528,175.446748 150.528,173.568 C150.528,169.326453 153.966453,165.888 158.208,165.888 C162.449547,165.888 165.888,169.326453 165.888,173.568 C165.888,177.809547 162.449547,181.248 158.208,181.248 C156.58455,181.248 155.07875,180.744276 153.838371,179.884597 L126.575807,206.66033 C127.000416,207.195681 127.365131,207.78069 127.659807,208.405238 L146.691538,201.155055 C146.522248,200.521253 146.432,199.855166 146.432,199.168 C146.432,194.926453 149.870453,191.488 154.112,191.488 C158.353547,191.488 161.792,194.926453 161.792,199.168 C161.792,203.409547 158.353547,206.848 154.112,206.848 C151.284916,206.848 148.814608,205.320462 147.481414,203.045725 L128.315118,210.347171 C128.444117,210.952414 128.512,211.580279 128.512,212.224 C128.512,213.713748 128.148425,215.118579 127.505167,216.354602 L147.843381,226.985942 C149.234765,225.02422 151.523877,223.744 154.112,223.744 C158.353547,223.744 161.792,227.182453 161.792,231.424 C161.792,235.665547 158.353547,239.104 154.112,239.104 C149.870453,239.104 146.432,235.665547 146.432,231.424 C146.432,230.50226 146.59438,229.618445 146.892094,228.799602 L126.349645,218.061504 C124.91573,219.72973 122.878259,220.864194 120.576,221.126125 L120.576,240.746187 C124.208273,241.355567 126.976,244.514565 126.976,248.32 C126.976,252.561547 123.537547,256 119.296,256 C115.054453,256 111.616,252.561547 111.616,248.32 C111.616,244.337653 114.647048,241.063245 118.528,240.67792 L118.528,221.126125 C116.102126,220.85013 113.970238,219.60539 112.528654,217.788224 L91.8240368,229.682366 C92.0424599,230.395021 92.16,231.151784 92.16,231.936 C92.16,236.177547 88.7215469,239.616 84.48,239.616 C80.2384531,239.616 76.8,236.177547 76.8,231.936 C76.8,227.694453 80.2384531,224.256 84.48,224.256 C87.2053178,224.256 89.5990834,225.675544 90.9622301,227.815566 L111.446633,216.04793 C110.898525,214.888173 110.592,213.591883 110.592,212.224 C110.592,211.786087 110.623415,211.355511 110.684116,210.934404 L87.1039261,201.8651 C85.7937656,204.226068 83.2754913,205.824 80.384,205.824 C76.1424531,205.824 72.704,202.385547 72.704,198.144 C72.704,193.902453 76.1424531,190.464 80.384,190.464 C84.6255469,190.464 88.064,193.902453 88.064,198.144 C88.064,198.768654 87.9894249,199.375891 87.8486921,199.957292 L111.21173,208.943075 C111.902245,207.189148 113.130035,205.705571 114.692378,204.695063 L93.9734972,157.337621 C93.2399294,157.570408 92.4586315,157.696 91.648,157.696 C87.4064531,157.696 83.968,154.257547 83.968,150.016 C83.968,145.774453 87.4064531,142.336 91.648,142.336 C95.8895469,142.336 99.328,145.774453 99.328,150.016 C99.328,152.716977 97.9336994,155.092298 95.8256007,156.46146 L116.530232,203.786331 C116.846955,203.67289 117.171925,203.576776 117.504,203.49913 L117.504,144.722403 C113.696893,144.069559 110.500822,141.627932 108.811837,138.293573 L57.3310573,149.733746 C57.2479418,151.289535 56.7679462,152.739949 55.9904886,153.985572 L78.2168056,169.502058 C79.6238351,167.913423 81.6789701,166.912 83.968,166.912 C88.2095469,166.912 91.648,170.350453 91.648,174.592 C91.648,178.833547 88.2095469,182.272 83.968,182.272 C79.7264531,182.272 76.288,178.833547 76.288,174.592 C76.288,173.3753 76.5709316,172.224683 77.0745909,171.202351 L54.7123616,155.590984 C53.6504902,156.650422 52.324182,157.44493 50.8410132,157.86693 L58.1051789,203.267966 C62.2314011,203.399493 65.536,206.785831 65.536,210.944 C65.536,215.185547 62.0975469,218.624 57.856,218.624 C53.6144531,218.624 50.176,215.185547 50.176,210.944 C50.176,207.319443 52.686871,204.281332 56.0641208,203.474158 L48.8198691,158.197584 C48.6754493,158.204502 48.5301332,158.208 48.384,158.208 C47.5083987,158.208 46.6621322,158.082403 45.8622337,157.848241 L36.4700938,178.265936 C38.2681574,179.671582 39.424,181.86081 39.424,184.32 C39.424,188.561547 35.9855469,192 31.744,192 C27.5024531,192 24.064,188.561547 24.064,184.32 C24.064,180.078453 27.5024531,176.64 31.744,176.64 C32.7891593,176.64 33.7855565,176.848776 34.6937626,177.226898 L43.9751254,157.050022 C41.6831438,155.752049 40.0197379,153.473295 39.555149,150.784 L15.2538132,150.784 C14.6444332,154.416273 11.4854352,157.184 7.68,157.184 C3.43845312,157.184 0,153.745547 0,149.504 C0,145.262453 3.43845312,141.824 7.68,141.824 C11.6623473,141.824 14.9367555,144.855048 15.3220798,148.736 L39.4383835,148.736 C39.5751238,146.308745 40.6780049,144.139732 42.368623,142.607364 L27.709777,123.194297 C26.5114373,123.967363 25.084111,124.416 23.552,124.416 C19.3104531,124.416 15.872,120.977547 15.872,116.736 C15.872,112.494453 19.3104531,109.056 23.552,109.056 C27.7935469,109.056 31.232,112.494453 31.232,116.736 C31.232,118.706182 30.4901313,120.50309 29.2705045,121.862616 L44.0332827,141.413322 C45.3215548,140.6964 46.8050839,140.288 48.384,140.288 C48.5609707,140.288 48.7367431,140.293131 48.9111765,140.303251 L56.2402517,102.741741 C52.7745397,101.99966 50.176,98.9192908 50.176,95.232 C50.176,90.9904531 53.6144531,87.552 57.856,87.552 C62.0975469,87.552 65.536,90.9904531 65.536,95.232 C65.536,99.3258454 62.3328487,102.671555 58.2960715,102.899603 L50.9292305,140.654663 C52.6354607,141.159245 54.1294796,142.158152 55.2454119,143.485509 L84.5652624,120.202098 C83.8613072,119.041828 83.456,117.680246 83.456,116.224 C83.456,111.982453 86.8944531,108.544 91.136,108.544 C95.3775469,108.544 98.816,111.982453 98.816,116.224 C98.816,120.465547 95.3775469,123.904 91.136,123.904 C89.0882933,123.904 87.227764,123.102599 85.850943,121.796327 L56.3796223,145.200023 C56.3833811,145.207433 56.3871299,145.214849 56.3908688,145.22227 L107.559931,133.851368 C107.533483,133.525739 107.52,133.196444 107.52,132.864 C107.52,130.037788 108.494422,127.439166 110.125633,125.385766 L64.3760644,73.4409434 C63.2471235,73.9541513 61.9929435,74.24 60.672,74.24 C58.2669458,74.24 56.0832115,73.2924164 54.4737756,71.7502276 L35.538953,86.1571579 C36.059148,87.1927061 36.352,88.3621534 36.352,89.6 C36.352,93.8415469 32.9135469,97.28 28.672,97.28 C24.4304531,97.28 20.992,93.8415469 20.992,89.6 C20.992,85.3584531 24.4304531,81.92 28.672,81.92 C30.9388218,81.92 32.9762652,82.9020856 34.3820589,84.4639853 L53.164667,70.1728704 C52.2459985,68.7661835 51.712,67.0854528 51.712,65.28 C51.712,65.0208765 51.7229997,64.764322 51.7445577,64.5107782 L35.5178795,62.6239552 C34.56937,65.7893053 31.6340637,68.096 28.16,68.096 C23.9184531,68.096 20.48,64.6575469 20.48,60.416 C20.48,56.1744531 23.9184531,52.736 28.16,52.736 C32.4015469,52.736 35.84,56.1744531 35.84,60.416 C35.84,60.4772912 35.839282,60.5384148 35.837854,60.5993627 L52.1527952,62.4964489 C52.5110003,61.3994346 53.0751966,60.3955523 53.7996906,59.5304955 L23.7842974,33.0990298 C22.4633662,34.1725669 20.7788241,34.816 18.944,34.816 C14.7024531,34.816 11.264,31.3775469 11.264,27.136 C11.264,22.8944531 14.7024531,19.456 18.944,19.456 C23.1855469,19.456 26.624,22.8944531 26.624,27.136 C26.624,28.8040026 26.0922493,30.3478083 25.1890199,31.607145 L55.291149,58.1149901 C55.8747188,57.6760376 56.5136445,57.3067216 57.1955837,57.0193846 L48.009174,28.5415141 C47.5498597,28.6271982 47.0761619,28.672 46.592,28.672 C42.3504531,28.672 38.912,25.2335469 38.912,20.992 C38.912,16.7504531 42.3504531,13.312 46.592,13.312 C50.8335469,13.312 54.272,16.7504531 54.272,20.992 C54.272,24.0278655 52.5105123,26.6523134 49.9538428,27.8990381 L59.1627253,56.4465739 C59.6533918,56.3633423 60.1576343,56.32 60.672,56.32 C61.0829884,56.32 61.4875139,56.3476711 61.8838151,56.401252 L70.8296095,23.1740156 C67.7563787,22.170292 65.536,19.2804446 65.536,15.872 C65.536,11.6304531 68.9744531,8.192 73.216,8.192 C77.4575469,8.192 80.896,11.6304531 80.896,15.872 C80.896,20.1135469 77.4575469,23.552 73.216,23.552 C73.0936656,23.552 72.9719992,23.5491397 72.8510641,23.5434823 L63.8685744,56.9070155 C64.2849164,57.0660575 64.6863539,57.25526 65.0702147,57.471951 L99.8107849,13.3781503 C98.2565542,11.9727718 97.28,9.94042911 97.28,7.68 C97.28,3.43845312 100.718453,0 104.96,0 C109.201547,0 112.64,3.43845312 112.64,7.68 C112.64,11.9215469 109.201547,15.36 104.96,15.36 C103.716455,15.36 102.541941,15.0644456 101.50287,14.5397497 L66.7283081,58.6766932 C67.9056063,59.7570444 68.7931461,61.1481374 69.2609553,62.72 L97.2841863,62.72 C97.2814027,62.6350088 97.28,62.5496682 97.28,62.464 C97.28,58.2224531 100.718453,54.784 104.96,54.784 C109.201547,54.784 112.64,58.2224531 112.64,62.464 C112.64,66.7055469 109.201547,70.144 104.96,70.144 C101.521171,70.144 98.6102266,67.8838581 97.6315922,64.768 L69.6176165,64.768 C69.6271626,64.937451 69.632,65.1081606 69.632,65.28 C69.632,66.3040796 69.4601952,67.288032 69.1438362,68.2046068 L125.346053,98.4310093 C126.740264,96.4935621 129.014805,95.232 131.584,95.232 C135.825547,95.232 139.264,98.6704531 139.264,102.912 C139.264,104.353458 138.866883,105.702165 138.176084,106.854684 L169.509414,70.3529694 C168.946439,69.5347965 168.515875,68.6184412 168.248653,67.6348292 L139.20486,73.2822334 C139.243894,73.5960073 139.264,73.9156556 139.264,74.24 C139.264,78.4815469 135.825547,81.92 131.584,81.92 C127.342453,81.92 123.904,78.4815469 123.904,74.24 C123.904,69.9984531 127.342453,66.56 131.584,66.56 C134.783318,66.56 137.525724,68.5162725 138.680279,71.2978785 L167.941896,65.6081195 C167.937977,65.4992304 167.936,65.3898461 167.936,65.28 C167.936,64.2088728 168.123953,63.1816445 168.468678,62.2294965 L121.497207,39.2134753 C120.108717,41.1981054 117.805928,42.496 115.2,42.496 C110.958453,42.496 107.52,39.0575469 107.52,34.816 C107.52,30.5744531 110.958453,27.136 115.2,27.136 C119.441547,27.136 122.88,30.5744531 122.88,34.816 C122.88,35.7200805 122.723783,36.5876745 122.436869,37.3932617 L169.382487,60.3966144 C169.874179,59.6416496 170.476577,58.9653883 171.166658,58.3908546 L140.120047,14.5603457 C139.091139,15.0721721 137.931182,15.36 136.704,15.36 C132.462453,15.36 129.024,11.9215469 129.024,7.68 C129.024,3.43845312 132.462453,0 136.704,0 C140.945547,0 144.384,3.43845312 144.384,7.68 C144.384,9.9583972 143.391859,12.0050674 141.816042,13.4115452 L172.880882,57.2677895 C173.413508,57.0003602 173.976482,56.7844747 174.56326,56.6266827 L168.591206,23.5506916 C168.543576,23.5515626 168.495839,23.552 168.448,23.552 C164.206453,23.552 160.768,20.1135469 160.768,15.872 C160.768,11.6304531 164.206453,8.192 168.448,8.192 C172.689547,8.192 176.128,11.6304531 176.128,15.872 C176.128,19.3604782 173.802124,22.305719 170.61651,23.2415834 L176.589928,56.3251295 C176.691532,56.3217189 176.793565,56.32 176.896,56.32 C177.471674,56.32 178.034668,56.3742901 178.580141,56.4780298 L192.045423,27.8100089 C189.584664,26.5302578 187.904,23.9573989 187.904,20.992 C187.904,16.7504531 191.342453,13.312 195.584,13.312 C199.825547,13.312 203.264,16.7504531 203.264,20.992 C203.264,25.2335469 199.825547,28.672 195.584,28.672 C195.034554,28.672 194.498585,28.6143016 193.981821,28.5046333 L180.551909,57.0973474 C181.529422,57.5347541 182.414239,58.1421784 183.168749,58.8820103 L217.545101,32.2976313 C216.306697,30.934017 215.552,29.123143 215.552,27.136 C215.552,22.8944531 218.990453,19.456 223.232,19.456 C227.473547,19.456 230.912,22.8944531 230.912,27.136 C230.912,31.3775469 227.473547,34.816 223.232,34.816 C221.732932,34.816 220.334177,34.3865057 219.152077,33.6438576 L184.458885,60.4732594 C184.964049,61.2664362 185.34787,62.1444323 185.584196,63.0811045 L206.872516,61.0341506 C206.856276,60.8302408 206.848,60.6240868 206.848,60.416 C206.848,56.1744531 210.286453,52.736 214.528,52.736 C218.769547,52.736 222.208,56.1744531 222.208,60.416 C222.208,64.6575469 218.769547,68.096 214.528,68.096 C211.211572,68.096 208.386118,65.9938881 207.311372,63.0493986 L185.854467,65.1125626 C185.855487,65.1682524 185.856,65.2240663 185.856,65.28 C185.856,66.4988031 185.612648,67.6607682 185.171882,68.7199573 L208.722884,84.5715929 C210.131054,82.9473262 212.209554,81.92 214.528,81.92 C218.769547,81.92 222.208,85.3584531 222.208,89.6 C222.208,93.8415469 218.769547,97.28 214.528,97.28 C210.286453,97.28 206.848,93.8415469 206.848,89.6 C206.848,88.4123381 207.117588,87.2876418 207.598908,86.2837667 L184.169281,70.5138255 C183.062271,72.0494999 181.48089,73.2204751 179.63981,73.8120779 L183.778616,106.002786 C183.95746,105.990331 184.13799,105.984 184.32,105.984 C188.561547,105.984 192,109.422453 192,113.664 C192,117.905547 188.561547,121.344 184.32,121.344 C180.078453,121.344 176.64,117.905547 176.64,113.664 C176.64,110.317389 178.780548,107.47073 181.767202,106.418465 L177.626201,74.2106748 C177.385364,74.2300993 177.141838,74.24 176.896,74.24 C176.281313,74.24 175.681082,74.178102 175.101202,74.0601991 L155.371768,123.383785 C157.678478,124.708789 159.232,127.196972 159.232,130.048 C159.232,134.289547 155.793547,137.728 151.552,137.728 C147.310453,137.728 143.872,134.289547 143.872,130.048 C143.872,125.806453 147.310453,122.368 151.552,122.368 C152.21613,122.368 152.860571,122.452299 153.475206,122.61078 L173.150695,73.4220583 C173.102314,73.3997664 173.054166,73.377056 173.006254,73.3539318 L128.66582,125.008253 C130.484334,127.11614 131.584,129.86165 131.584,132.864 C131.584,133.025971 131.5808,133.187195 131.574458,133.347611 L181.496484,145.630014 C182.886819,142.483676 186.034996,140.288 189.696,140.288 C191.915972,140.288 193.947377,141.095352 195.512617,142.432458 L214.923752,121.697837 C214.029777,120.442412 213.504,118.906607 213.504,117.248 C213.504,113.006453 216.942453,109.568 221.184,109.568 C225.425547,109.568 228.864,113.006453 228.864,117.248 C228.864,121.489547 225.425547,124.928 221.184,124.928 C219.340983,124.928 217.649593,124.278808 216.32603,123.196624 L196.911474,143.934899 C197.817051,145.162669 198.416757,146.629858 198.598125,148.224 L223.338187,148.224 C223.947567,144.591727 227.106565,141.824 230.912,141.824 C235.153547,141.824 238.592,145.262453 238.592,149.504 C238.592,153.745547 235.153547,157.184 230.912,157.184 C226.929653,157.184 223.655245,154.152952 223.26992,150.272 L198.598125,150.272 C198.242936,153.393956 196.283294,156.029009 193.563938,157.332421 L203.146796,177.331429 C204.118158,176.887434 205.198183,176.64 206.336,176.64 C210.577547,176.64 214.016,180.078453 214.016,184.32 C214.016,188.561547 210.577547,192 206.336,192 C202.094453,192 198.656,188.561547 198.656,184.32 C198.656,181.956177 199.723934,179.841784 201.403647,178.432974 L191.613928,158.002257 C190.996026,158.137006 190.354304,158.208 189.696,158.208 C189.492747,158.208 189.291076,158.201232 189.091198,158.18791 L182.813908,204.060407 C186.045927,204.966627 188.416,207.934534 188.416,211.456 C188.416,215.697547 184.977547,219.136 180.736,219.136 C176.494453,219.136 173.056,215.697547 173.056,211.456 C173.056,207.214453 176.494453,203.776 180.736,203.776 C180.752586,203.776 180.769159,203.776053 180.78572,203.776158 L187.074667,157.818461 C184.405735,157.003165 182.266026,154.975374 181.297556,152.377106 L137.165045,162.95052 C137.198702,163.242346 137.216,163.539153 137.216,163.84 C137.216,168.081547 133.777547,171.52 129.536,171.52 C125.294453,171.52 121.856,168.081547 121.856,163.84 C121.856,159.598453 125.294453,156.16 129.536,156.16 C132.761206,156.16 135.522076,158.14806 136.659993,160.965564 L180.807897,150.388463 C180.799968,150.326053 180.792682,150.263443 180.786045,150.20064 L130.513687,137.832044 C128.893331,141.401583 125.580676,144.039796 121.6,144.722403 Z M136.483596,108.826346 C135.153956,109.929085 133.446394,110.592 131.584,110.592 C127.342453,110.592 123.904,107.153547 123.904,102.912 C123.904,101.97165 124.073003,101.070772 124.382292,100.238084 L68.2564234,70.0527429 C68.1564482,70.2112813 68.0516394,70.3664662 67.9422042,70.5180908 L113.627103,122.389487 C115.376113,121.398041 117.397954,120.832 119.552,120.832 C121.529863,120.832 123.396263,121.309233 125.04233,122.154831 L136.483595,108.826347 Z" id="Logo"></path>
            </g>
        </g>
    </g>
</svg>